<svg data-name="Слой 1" xmlns="http://www.w3.org/2000/svg" viewBox="0 0 935.43 935.43"><defs><clipPath id="a" transform="translate(.77)"><path fill="none" d="M210.95 272.22h512v391h-512z"/></clipPath></defs><circle cx="467.72" cy="467.72" r="467.72" fill="#fff"/><g clip-path="url(#a)"><path d="M703.77 503.22a20 20 0 0020-20v-131a80.09 80.09 0 00-80-80h-352a80.09 80.09 0 00-80 80v231a80.09 80.09 0 0080 80h352a80.09 80.09 0 0080-80 20 20 0 00-40 0 40.05 40.05 0 01-40 40h-352a40 40 0 01-40-40V356.45l173.7 108.05a79.52 79.52 0 0084.49 0l173.81-108.05v126.77a20 20 0 0020 20m-214.93-72.69a39.75 39.75 0 01-42.24 0l-178.19-110.8a39.76 39.76 0 0123.36-7.51h352a39.76 39.76 0 0123.31 7.51z" fill="#e6301d"/></g></svg>