<svg data-name="Слой 1" xmlns="http://www.w3.org/2000/svg" viewBox="0 0 935.43 935.43"><defs><clipPath id="a"><path fill="none" d="M211.72 211.72h512v512h-512z"/></clipPath></defs><circle cx="467.72" cy="467.72" r="467.72" fill="#fff"/><g clip-path="url(#a)" fill="#653394"><path d="M563.72 211.72h-192a160 160 0 00-160 160v192a160 160 0 00160 160h192a160 160 0 00160-160v-192a160 160 0 00-160-160m112 352a112.12 112.12 0 01-112 112h-192a112.12 112.12 0 01-112-112v-192a112.12 112.12 0 01112-112h192a112.12 112.12 0 01112 112z"/><path d="M467.72 339.72a128 128 0 10128 128 128 128 0 00-128-128m0 208a80 80 0 1180-80 80.11 80.11 0 01-80 80M605.32 313.06a17.06 17.06 0 11-17.06 17.06 17.05 17.05 0 0117.06-17.06"/></g></svg>