<svg data-name="Слой 1" xmlns="http://www.w3.org/2000/svg" viewBox="0 0 124.72 124.72"><defs><clipPath id="a"><path fill="none" d="M41.94 28.35h40.85v68.02H41.94z"/></clipPath></defs><circle cx="62.36" cy="62.36" r="62.36" fill="#fff"/><g clip-path="url(#a)" fill="#ffa921"><path d="M77.5 62.75A7.09 7.09 0 0075 64a23.1 23.1 0 01-25.62-.23 7.64 7.64 0 00-1.17-.69A4.22 4.22 0 0043.43 70c.46.44 1 .82 1.48 1.22 4.08 3.18 8.83 4.48 14.1 5-.37.4-.61.68-.86.93L46.54 88.82a4.29 4.29 0 00-1.44 2.86 4.62 4.62 0 002.67 4.26 3.79 3.79 0 004.58-.82c3-3 6.06-6 9-9.07.75-.77 1.15-.94 2 0 2.89 3 5.9 6 8.86 8.92A4.24 4.24 0 0075 96.33a4.63 4.63 0 004.35-2.71 3.89 3.89 0 00-.88-4.62c-3.91-4-7.84-7.87-11.76-11.8-.27-.28-.47-.51-.91-1a35.24 35.24 0 008.46-1.9 20.66 20.66 0 007.45-4.81c1.38-1.42 1.39-3.19.27-5a3.92 3.92 0 00-4.48-1.8"/><path d="M62.23 62.78a17.22 17.22 0 10-17.07-17.25 17.19 17.19 0 0017.07 17.25m.13-25.63a8.43 8.43 0 11-8.43 8.5 8.37 8.37 0 018.43-8.5"/></g></svg>