<svg data-name="Слой 1" xmlns="http://www.w3.org/2000/svg" viewBox="0 0 850.39 850.39"><defs><clipPath id="a" transform="translate(121.86 221.07)"><path fill="none" d="M47.36 58.07h511.96v292.11H47.36z"/></clipPath></defs><circle cx="425.2" cy="425.2" r="425.2" fill="#fff"/><g clip-path="url(#a)"><path d="M676.62 539.68c-1.38-2.3-9.89-20.8-50.85-58.81-42.91-39.8-37.12-33.35 14.53-102.18 31.46-41.92 44-67.52 40.1-78.46-3.75-10.43-26.88-7.68-26.88-7.68l-76.93.45s-5.7-.77-10 1.76-6.73 8.25-6.73 8.25-12.19 32.45-28.45 60c-34.27 58.21-48 61.28-53.6 57.67-13-8.42-9.76-33.86-9.76-51.91 0-56.41 8.55-79.93-16.67-86-8.38-2-14.53-3.36-35.93-3.59-27.46-.28-50.72.1-63.88 6.53-8.76 4.29-15.52 13.86-11.39 14.4 5.09.67 16.61 3.11 22.72 11.43 7.91 10.72 7.62 34.84 7.62 34.84s4.54 66.4-10.59 74.66c-10.4 5.66-24.64-5.89-55.2-58.72-15.65-27-27.49-57-27.49-57s-2.27-5.57-6.34-8.54c-4.94-3.56-11.85-4.71-11.85-4.71l-73.19.45s-11 .32-15 5.08c-3.58 4.26-.29 13-.29 13s57.28 134 122.12 201.53c59.48 61.92 127 57.86 127 57.86h30.6s9.24-1 14-6.11c4.35-4.67 4.19-13.44 4.19-13.44s-.61-41.06 18.46-47.11c18.79-6 42.92 39.68 68.48 57.25 19.33 13.28 34 10.37 34 10.37l68.38-1s35.78-2.21 18.82-30.34" fill="#4a61b5"/></g></svg>