<svg data-name="Слой 1" xmlns="http://www.w3.org/2000/svg" viewBox="0 0 935.43 935.43"><defs><clipPath id="a"><path fill="none" d="M211.54 286.46h512.35v362.52H211.54z"/></clipPath></defs><circle cx="467.72" cy="467.72" r="467.72" fill="#fff"/><g clip-path="url(#a)"><path d="M223 593c10.46 37.08 42.44 43.86 44.57 45.17 52.63 14.33 347.63 14.38 401.05 0 36.58-10.58 43.3-43 44.56-45.17 13.93-74.11 14.85-170.73-.64-254.82l.64 4.18c-10.45-37.08-42.43-43.86-44.56-45.16-51.93-14.11-347.7-14.64-401 0-36.59 10.6-43.31 43-44.57 45.16-14.91 77.89-15.65 167.25 0 250.64m193.84-47.42V390l133.67 77.9z" fill="#e11720"/></g></svg>