<svg data-name="Слой 1" xmlns="http://www.w3.org/2000/svg" viewBox="0 0 425.2 425.2"><defs><clipPath id="a" transform="translate(107.14 80.61)"><path fill="none" d="M5.97-2.31h198.96v268.59H5.97z"/></clipPath></defs><circle cx="212.6" cy="212.6" r="212.6" fill="#e63521"/><g clip-path="url(#a)"><path d="M312.08 234.52c-.08 30.35-6.11 55.2-22.6 76.72-16.82 21.93-39.6 33.06-66.81 35.21-20.59 1.63-40.6-1-59-11.21-24.6-13.63-38.94-35.17-46.06-61.87-6.67-25-5.34-50.17.22-75.14 7.22-32.45 20.41-62.23 41.62-88.09 9.15-11.15 19.69-20.8 32.91-27.05 15.2-7.15 30.06-6.13 44.49 2 18.29 10.23 31.29 25.75 42.11 43.16 20.87 33.63 32.44 70.18 33.12 106.27" fill="#fff"/></g></svg>