<svg version="1.1" id="Слой_1" xmlns="http://www.w3.org/2000/svg" xmlns:xlink="http://www.w3.org/1999/xlink" x="0" y="0" viewBox="0 0 220.3 17.7" xml:space="preserve"><style>.st1,.st2{clip-path:url(#SVGID_2_);fill-rule:evenodd;clip-rule:evenodd;fill:#494e4d}.st2{fill:#e32021}</style><path fill="#494e4d" d="M0 .4v3.7h6.1v13.3H10V4.1h6.1V.4z"/><defs><path id="SVGID_1_" d="M0 0h220.3v17.7H0z"/></defs><clipPath id="SVGID_2_"><use xlink:href="#SVGID_1_" overflow="visible"/></clipPath><path class="st1" d="M19.1 17.4H23v-6h2.4l4.2 6h4.5l-4.6-6.5c2.2-.8 3.5-2.6 3.5-5C33 2.5 30.4.4 26.3.4h-7.1v17zM23 8.2V3.7h3.4c1.7 0 2.7.9 2.7 2.2 0 1.4-1.1 2.3-2.7 2.3H23zM34.6 17.4h4.1l1.3-3.6h7.2l1.3 3.6h4.2L46.3.4h-5.1l-6.6 17zm6.4-6.7l2.5-7h.1l2.5 7H41zM55.4 17.4h3.9v-6.7h2.5l4.6 6.7h4.7l-6-8.8L70.7.4h-4.3L61.8 7h-2.5V.4h-3.9zM78.1 17.4H82V4.1h6.1V.4H71.9v3.7h6.2zM98.3 17.7c5.1 0 8.9-3.8 8.9-8.9 0-5.1-3.8-8.9-8.9-8.9-5.1 0-8.9 3.8-8.9 8.9-.1 5.1 3.8 8.9 8.9 8.9m0-3.7c-2.8 0-5-2.2-5-5.2 0-2.9 2.1-5.2 5-5.2 2.8 0 5 2.2 5 5.2-.1 3-2.2 5.2-5 5.2M110.6 17.4h3.8v-6h2.4l4.2 6h4.5l-4.6-6.5c2.2-.8 3.5-2.6 3.5-5 0-3.4-2.6-5.5-6.7-5.5h-7.1v17zm3.8-9.2V3.7h3.4c1.7 0 2.7.9 2.7 2.2 0 1.4-1.1 2.3-2.7 2.3h-3.4z"/><path class="st2" d="M132.5 17.4h3.9V4.1h6.1V.4h-16.2v3.7h6.2zM153 17.7c4.8 0 7.8-3.1 7.8-7.8V.4h-3.9v9.4c0 2.7-1.4 4.3-4 4.3-2.5 0-4-1.6-4-4.3V.4H145v9.5c.1 4.8 3.2 7.8 8 7.8M169.6 17.4h3.9V4.1h6.1V.4h-16.1v3.7h6.1zM181.4 17.6c1.3 0 2.3-1 2.3-2.3 0-1.3-1-2.3-2.3-2.3-1.3 0-2.3 1-2.3 2.3 0 1.3 1 2.3 2.3 2.3M187.4 17.4h8.6c3.5 0 5.9-1.9 5.9-4.8 0-1.7-.9-3.1-2.4-3.9v-.2c1.2-.8 1.8-2 1.8-3.5 0-2.9-2.3-4.6-5.9-4.6h-8v17zm3.8-10.2V3.6h4.1c1.4 0 2.2.7 2.2 1.8s-.9 1.8-2.2 1.8h-4.1zm0 6.9v-3.7h4.5c1.4 0 2.3.7 2.3 1.9s-.9 1.9-2.3 1.9h-4.5zM209.4 17.4h3.9v-6l7-11h-4.4l-4.4 7.3-4.6-7.3h-4.6l7.1 11z"/></svg>