<svg data-name="Слой 1" xmlns="http://www.w3.org/2000/svg" viewBox="0 0 512 512"><defs><clipPath id="a"><path fill="none" d="M0 0h512v512H0z"/></clipPath></defs><g clip-path="url(#a)"><path d="M508.87 478.71L360.14 330a201.64 201.64 0 0045.19-127.31C405.33 90.92 314.42 0 202.67 0S0 90.92 0 202.67s90.92 202.66 202.67 202.66A201.64 201.64 0 00330 360.14l148.71 148.74a10.67 10.67 0 0015.08 0l15.09-15.09a10.66 10.66 0 000-15.08m-306.2-116c-88.23 0-160-71.77-160-160s71.77-160 160-160 160 71.77 160 160-71.77 160-160 160" fill="#282828"/></g></svg>