<svg id="Слой_1" data-name="Слой 1" xmlns="http://www.w3.org/2000/svg" viewBox="0 0 490.01 489.2"><defs><clipPath id="clip-path"><path fill="none" d="M0 0h490.01v489.2H0z"/></clipPath><style>.cls-3{fill:#282828}</style></defs><g clip-path="url(#clip-path)"><path class="cls-3" d="M278.8 188.8h-49.3v-49.3a20.4 20.4 0 00-40.8 0v49.3h-49.3a20.4 20.4 0 000 40.8h49.3v49.3a20.4 20.4 0 1040.8 0v-49.3h49.3a20.4 20.4 0 000-40.8"/><path class="cls-3" d="M209.2 377.3C116.3 377.3 41 302.1 41 209.2S116.3 41.1 209.2 41.1a168.09 168.09 0 01168.1 168.1c0 92.8-75.3 168.1-168.1 168.1m274.8 78L370.7 342a208.44 208.44 0 0047.6-132.8C418.3 93.7 324.7 0 209.1 0S0 93.7 0 209.2s93.6 209.2 209.2 209.2a208.08 208.08 0 00132.7-47.5l113.3 113.3c5.2 5.3 21.1 7.9 28.9 0a20.49 20.49 0 00-.1-28.9"/></g></svg>