<svg data-name="Слой 1" xmlns="http://www.w3.org/2000/svg" viewBox="0 0 588.72 512"><defs><clipPath id="a"><path fill="none" d="M0 0h588.72v512H0z"/></clipPath></defs><g clip-path="url(#a)"><path d="M147.44 348.91v41.78a8.62 8.62 0 008.63 8.62h295.76a8.62 8.62 0 008.62-8.62v-41.78a8.62 8.62 0 00-8.62-8.63H156.07a8.63 8.63 0 00-8.63 8.63m263.14 8.62h32.63v24.54h-32.63zm-49 0h31.75v24.54h-31.75zm-49 0h31.76v24.54h-31.77zm-49 0h31.76v24.54h-31.77zm-49 0h31.75v24.54h-31.76zm-49.88 0h32.63v24.54h-32.64z" fill="#282828"/><path d="M588.7 502.85a8.86 8.86 0 00-9-8.1h-24.41V167.07h3.24a8.84 8.84 0 008.94-8.1 8.62 8.62 0 00-8.6-9.15h-3.58v-30.51h3.24a8.84 8.84 0 008.94-8.1 8.62 8.62 0 00-8.6-9.15H449.69a8.86 8.86 0 00-8.95 8.09 8.63 8.63 0 008.61 9.16h3.58V149.78h-3.24a8.85 8.85 0 00-8.95 8.09 8.63 8.63 0 008.61 9.16h3.58v37.39h-.07l-59.28-59.27a28.56 28.56 0 00-20.33-8.42h-37.82V68h4.63a8.83 8.83 0 008.94-8.18 8.62 8.62 0 00-8.61-9.15h-5V17.29h4.63A8.84 8.84 0 00349 9.15 8.62 8.62 0 00340.39 0H177.75a8.85 8.85 0 00-8.95 8.09 8.63 8.63 0 008.61 9.16h5v33.37h-4.62a8.86 8.86 0 00-8.95 8.1 8.63 8.63 0 008.61 9.15h5V301.54h-33a.05.05 0 010-.05v-24.28a8.62 8.62 0 00-8.62-8.62 8.62 8.62 0 00-8.62 8.62v24.28aNaN NaN 0 01-.05.05h-18.64a15.59 15.59 0 00-15.59 15.59V374H40.61a19.44 19.44 0 00-19.42 19.42v101.3H9a8.84 8.84 0 00-9 8.13A8.62 8.62 0 008.62 512h571.47a8.62 8.62 0 008.61-9.15M97.93 494.7aNaN NaN 0 01-.05.05H78.76v-41.14V433.21a2.17 2.17 0 012.13-2.21h8.69v.05h8.3zm0-86.51v5.56H80.89a19.45 19.45 0 00-19.42 19.42v20.35h.05aNaN NaN 0 00-.05.05v41.1h-23v-61V393.45a2.17 2.17 0 012.17-2.17h57.29zm372.29-288.88H538V149.78h-67.73v-.05zm-134.83 34.78h37.86a11.42 11.42 0 018.13 3.36L453 229v32.39h-.07l-81.84-81.84A8.62 8.62 0 00365 177h-29.57zM453 285.9v15.64H335.43v-107.2-.05h26L453 285.87M199.67 17.29h118.47v33.33H199.72h-.05zm0 50.67h118.47v233.53aNaN NaN 0 01-.05.05H199.72aNaN NaN 0 01-.05-.05V68zM358.92 494.7aNaN NaN 0 01-.05.05H249v-51.19-.05h109.87aNaN NaN 0 01.05.05zm133.8 0aNaN NaN 0 01-.05.05H376.21v-59.82a8.67 8.67 0 00-8.67-8.66H240.4a8.67 8.67 0 00-8.67 8.66v59.82H115.22V318.83h377.5zm45.27 0v.05H510V317.13a15.59 15.59 0 00-15.59-15.59h-24.14V167.07H538z" fill="#282828"/><path d="M123.19 83.62c68 0 123.18 55.37 123.18 123.67S191.22 331 123.19 331 0 275.59 0 207.29 55.15 83.62 123.19 83.62" fill="#fbec42"/><path d="M106.22 254.75a6.58 6.58 0 01-6.07-9.14l35-83.53a6.593 6.593 0 1112.16 5.1l-35.01 83.53a6.59 6.59 0 01-6.08 4M96.22 203.33c-12.18 0-22.09-11-22.09-24.6s9.87-24.59 22.09-24.59 22.08 11 22.08 24.59-9.91 24.6-22.08 24.6m0-36c-4.83 0-8.9 5.22-8.9 11.4s4.07 11.41 8.9 11.41 8.89-5.22 8.89-11.41-4.07-11.4-8.89-11.4M150.15 260.44c-12.17 0-22.08-11-22.08-24.59s9.91-24.6 22.08-24.6 22.09 11 22.09 24.6-9.91 24.59-22.09 24.59m0-36c-4.82 0-8.89 5.22-8.89 11.41s4.07 11.4 8.89 11.4 8.9-5.22 8.9-11.4-4.07-11.41-8.9-11.41" fill="#282828"/></g></svg>