<svg data-name="Слой 1" xmlns="http://www.w3.org/2000/svg" viewBox="0 0 511.66 484.73"><defs><clipPath id="a"><path fill="none" d="M0 0h511.66v484.73H0z"/></clipPath></defs><g clip-path="url(#a)"><path d="M501.66 340.35h-.3v-58.21a9.09 9.09 0 00-.73-3.74l-36.24-95.89A10 10 0 00455 176h-59.12v-62.63a27.27 27.27 0 00-27.23-27.25H192.46a106.9 106.9 0 017.74 20h168.45a7.24 7.24 0 017.23 7.25v227H90V231.2a105.9 105.9 0 01-20-5.2v114.35h-.3a10 10 0 00-10 10v61.51a10 10 0 0010 10h46.4a51.85 51.85 0 10101.45 0h147.2a51.85 51.85 0 10101.45 0h35.46a10 10 0 0010-10v-61.51a10 10 0 00-10-10zM395.88 196h52.24l28.77 76.1h-81zm0 96.1h85.48v48.21h-85.48zM166.79 464.73a32.1 32.1 0 1131.84-32.1 32 32 0 01-31.84 32.1m248.69 0a32.1 32.1 0 1131.84-32.1 32 32 0 01-31.84 32.1m76.18-62.87h-34.37a51.64 51.64 0 00-83.62 0H208.6a51.64 51.64 0 00-83.62 0H79.66v-41.5h412z" fill="#282828"/><path d="M123.19 0c68 0 123.18 55.37 123.18 123.67s-55.15 123.67-123.18 123.67S0 192 0 123.67 55.15 0 123.19 0" fill="#fbec42"/><path d="M78.31 77.46a2.29 2.29 0 011.06.6l32.5 32.5 5.88-5.88-32.5-32.5a2.29 2.29 0 01-.6-1.06l-2-8.15-13.6-7.75-6.64 6.64 7.75 13.57z" fill="#282828"/><path d="M107.21 151.6l51.58-51.6a2.24 2.24 0 012.16-.6 22.63 22.63 0 0028.23-22v-1.3l-12 12a2.26 2.26 0 01-2.32.55l-13.69-4.55a2.28 2.28 0 01-1.43-1.44L155.19 69a2.28 2.28 0 01.55-2.33l12-12a22.62 22.62 0 00-23.32 28.19 2.27 2.27 0 01-.6 2.16l-51.58 51.6a2.28 2.28 0 01-2.16.6 22.18 22.18 0 00-5.5-.7 22.89 22.89 0 1022 17.24 2.29 2.29 0 01.6-2.16m-17.06 16.75H79.05l-5.46-9.1 5.46-9.09h11.07l5.45 9.09zm8.77-26.62l50-50 3.21 3.21-50 50zM170.53 181.11a13.79 13.79 0 0017.76-17.76z" fill="#282828"/><path d="M185.14 158.43l-25.54-25.55a7.1 7.1 0 01-10-10l-3.6-3.61-19.53 19.52 3.64 3.64a7.1 7.1 0 0110 10l25.5 25.57c.28.28.57.54.87.79l19.44-19.45c-.25-.29-.51-.59-.78-.86m-13.49 9.25l-22.73-22.74 3.21-3.21 22.74 22.74z" fill="#282828"/></g></svg>