<svg data-name="Слой 1" xmlns="http://www.w3.org/2000/svg" viewBox="0 0 511.66 484.73"><defs><clipPath id="a"><path fill="none" d="M0 0h511.66v484.73H0z"/></clipPath></defs><g clip-path="url(#a)"><path d="M501.66 340.35h-.3v-58.21a9.09 9.09 0 00-.73-3.74l-36.24-95.89A10 10 0 00455 176h-59.12v-62.63a27.27 27.27 0 00-27.23-27.25H192.46a106.9 106.9 0 017.74 20h168.45a7.24 7.24 0 017.23 7.25v227H90V231.2a105.9 105.9 0 01-20-5.2v114.35h-.3a10 10 0 00-10 10v61.51a10 10 0 0010 10h46.4a51.85 51.85 0 10101.45 0h147.2a51.85 51.85 0 10101.45 0h35.46a10 10 0 0010-10v-61.51a10 10 0 00-10-10zM395.88 196h52.24l28.77 76.1h-81zm0 96.1h85.48v48.21h-85.48zM166.79 464.73a32.1 32.1 0 1131.84-32.1 32 32 0 01-31.84 32.1m248.69 0a32.1 32.1 0 1131.84-32.1 32 32 0 01-31.84 32.1m76.18-62.87h-34.37a51.64 51.64 0 00-83.62 0H208.6a51.64 51.64 0 00-83.62 0H79.66v-41.5h412z" fill="#282828"/><path d="M123.19 0c68 0 123.18 55.37 123.18 123.67s-55.15 123.67-123.18 123.67S0 192 0 123.67 55.15 0 123.19 0" fill="#fbec42"/><path d="M182.19 99.43c0-3.84-.61-4.44-4.43-4.43l-30.6.15c-.77 0-1.55-.07-2.52-.13 2.76-2.2 5.36-3.94 7.56-6.09a14.23 14.23 0 002.47-17A14.52 14.52 0 00139 64.84c-6.38 1.27-9.72 6-12.65 11.11-1.21 2.12-2.15 4.4-3.38 7a23.92 23.92 0 00-1.21-2.58c-2.31-3.69-4.24-7.73-7.09-11a14.38 14.38 0 10-20.1 20.47 65.86 65.86 0 005.55 4.16c.46.34.9.7 1.84 1.43H98.7l-29.4.13c-4.84 0-5.23.4-5.2 5.11 0 5.74.08 11.47.08 17.2 0 2.26 1 3.42 3.3 3.39a16.48 16.48 0 011.87.2v2.89q.12 26.88.26 53.74c0 4.17.58 4.74 4.65 4.72l98.71-.51c3.85 0 4.47-.63 4.45-4.42q-.12-27.11-.27-54.21v-2.72c5.15-.77 5.15-.77 5.12-5.74q0-7.87-.08-15.76m-50.59-22.1a25.62 25.62 0 013.72-4.93 9.24 9.24 0 1113.08 13c-5.11 5-11.53 7.5-18.35 9.13-1.28.31-2.61.43-4.41.72a42.46 42.46 0 016-18m-34.26 7.8c-3.59-3.2-3.24-9 .06-12.49s9-4 12.53-.75c6.59 6.15 9.15 14.25 10.8 23.28a30 30 0 01-13.11-3.32 48 48 0 01-10.28-6.72m13.17 92.14l-35.6.18c-.1-18.77-.2-37.4-.29-56.16l35.6-.18c.1 18.76.19 37.39.29 56.16m-.28-61.63l-40.72.21c0-5-.05-9.88-.08-15l40.73-.21c0 5 0 9.93.07 15m5.34-15.06l15.09-.08c0 5 .05 9.89.08 15.1l-15.09.08c0-5-.05-10-.08-15.1m15.76 76.77l-15.33.08v-.06c-.1-18.82-.19-37.45-.29-56.27l15.15-.08h.1zm41.12-.21l-36.14.18-.29-56.5 36.14-.19zm4.51-61.75l-40.72.21c0-5.05-.05-10-.07-15.08l40.71-.21c0 5.15.05 10 .08 15.08" fill="#282828"/><path d="M182.19 99.43c0-3.84-.61-4.44-4.43-4.43l-30.6.15c-.77 0-1.55-.07-2.52-.13 2.76-2.2 5.36-3.94 7.56-6.09a14.23 14.23 0 002.47-17A14.52 14.52 0 00139 64.84c-6.38 1.27-9.72 6-12.65 11.11-1.21 2.12-2.15 4.4-3.38 7a23.92 23.92 0 00-1.21-2.58c-2.31-3.69-4.24-7.73-7.09-11a14.38 14.38 0 10-20.1 20.47 65.86 65.86 0 005.55 4.16c.46.34.9.7 1.84 1.43H98.7l-29.4.13c-4.84 0-5.23.4-5.2 5.11 0 5.74.08 11.47.08 17.2 0 2.26 1 3.42 3.3 3.39a16.48 16.48 0 011.87.2v2.89q.12 26.88.26 53.74c0 4.17.58 4.74 4.65 4.72l98.71-.51c3.85 0 4.47-.63 4.45-4.42q-.12-27.11-.27-54.21v-2.72c5.15-.77 5.15-.77 5.12-5.74l-.08-15.78zM131.6 77.35a25.62 25.62 0 013.72-4.93 9.24 9.24 0 1113.08 13c-5.11 5-11.53 7.5-18.35 9.13-1.28.31-2.61.43-4.41.72a42.46 42.46 0 015.96-17.92zm-34.26 7.8c-3.59-3.2-3.24-9 .06-12.49s9-4 12.53-.75c6.59 6.15 9.15 14.25 10.8 23.28a30 30 0 01-13.11-3.32 48 48 0 01-10.28-6.72zm13.17 92.14l-35.6.18c-.1-18.77-.2-37.4-.29-56.16l35.6-.18c.1 18.76.19 37.39.29 56.16zm-.28-61.63l-40.72.21c0-5-.05-9.88-.08-15l40.73-.21c.02 5.06.05 9.96.07 15zm5.34-15.06l15.09-.08c0 5 .05 9.89.08 15.1l-15.09.08c-.03-5.05-.05-10.01-.08-15.1zm15.76 76.77l-15.33.08v-.06c-.1-18.82-.19-37.45-.29-56.27l15.15-.08h.14zm41.12-.21l-36.14.18-.29-56.5 36.14-.19zm4.55-61.83l-40.72.21c0-5.05-.05-10-.07-15.08l40.71-.21c0 5.15.02 10.05.08 15.08z" fill="none" stroke="#282828" stroke-miterlimit="10" stroke-width="3"/></g></svg>