<svg data-name="Слой 1" xmlns="http://www.w3.org/2000/svg" viewBox="0 0 511.84 509.86"><defs><clipPath id="a"><path fill="none" d="M0 0h511.84v509.86H0z"/></clipPath></defs><g clip-path="url(#a)"><path d="M115.15 506.9a10 10 0 0014.11.08l48.47-47.75a30.21 30.21 0 007.12-31l10.42-10a29.8 29.8 0 0120.82-8.41H349a89.53 89.53 0 0062.76-25.5c.69-.68-5.28 6.36 90.67-108.31A40.028 40.028 0 00441.57 224l-59 60.64a40.18 40.18 0 00-31.08-14.89H240a129.1 129.1 0 00-50.06-10c-48.14 0-90.18 22.23-112.74 63.92A29.83 29.83 0 0050.48 332L2.92 379.69a10 10 0 000 14.11zm74.79-227.12a109.13 109.13 0 0144 9.16 9.83 9.83 0 004 .84h113.55a20 20 0 110 40h-81.57a10 10 0 000 20h81.57a40 40 0 0040-40 41.23 41.23 0 00-.35-5.22c57.06-58.66 65.11-66.91 65.45-67.32a20.002 20.002 0 1130.54 25.84l-89.67 107.2A69.63 69.63 0 01349 389.75H216.09a49.67 49.67 0 00-34.7 14l-8.5 8.2-78.32-78.3c18.3-34.34 52.65-53.87 95.37-53.87M64.62 346.12a10 10 0 0112.38-1.4c1.73 1-3.24-3.47 86.59 86.23a10 10 0 01.06 14.09l-41.32 40.71-98.23-99z" fill="#282828"/><path d="M407.89 108.9A108.85 108.85 0 11299 0a108.88 108.88 0 01108.89 108.9" fill="#fbec42"/><path d="M281.44 158.16a6.86 6.86 0 01-6.31-9.5L311.51 62a6.844 6.844 0 0112.62 5.3L287.75 154a6.85 6.85 0 01-6.31 4.2M271.06 104.79c-12.64 0-22.92-11.45-22.92-25.52s10.28-25.52 22.92-25.52S294 65.19 294 79.27s-10.28 25.52-22.91 25.52m0-37.36c-5 0-9.23 5.42-9.23 11.84s4.22 11.83 9.23 11.83 9.23-5.42 9.23-11.83-4.23-11.84-9.23-11.84M327 164.05c-12.63 0-22.91-11.44-22.91-25.52S314.4 113 327 113s23 11.46 23 25.53-10.33 25.52-23 25.52m0-37.35c-5 0-9.23 5.42-9.23 11.83s4.23 11.84 9.23 11.84 9.23-5.42 9.23-11.84S332 126.7 327 126.7" fill="#282828"/></g></svg>