<svg data-name="Слой 1" xmlns="http://www.w3.org/2000/svg" viewBox="0 0 507.02 441.88"><defs><clipPath id="a"><path fill="none" d="M0 0h507.02v441.88H0z"/></clipPath></defs><g clip-path="url(#a)"><path d="M96.8 313.07a40.22 40.22 0 1040.2 40.22 40.22 40.22 0 00-40.2-40.22m0 64.35a24.13 24.13 0 1124.13-24.13 24.13 24.13 0 01-24.13 24.13M402.45 393.51a56.31 56.31 0 10-56.3-56.31 56.3 56.3 0 0056.3 56.31m0-96.52a40.22 40.22 0 11-40.22 40.21 40.22 40.22 0 0140.22-40.2" fill="#282828"/><path d="M364.85 216.55h90.57l37.87 37.86a8 8 0 0013.71-5.68v-48.27a8 8 0 00-2.36-5.68l-24.13-24.13a8.05 8.05 0 00-5.69-2.36h-48.24V71.77h8a8 8 0 008.05-8V31.55a8 8 0 00-8.05-8H225.49a8 8 0 00-8 8v32.17a8 8 0 008 8h6.82l-13.8 96.52h-17.15v-24.08a8 8 0 00-8-8h-8V95.9a24.13 24.13 0 00-24.14-24.13h-8v16.09h8a8 8 0 018.05 8v40.22h-8.05a8 8 0 00-8 8v40.22H137a64.41 64.41 0 00-64.34 64.35v19.51a88.48 88.48 0 10112.19 93.09h16.5v8.05a8 8 0 008 8h64.34a8 8 0 008.05-8v-8.05h19a104.2 104.2 0 10-2.92-24.13c0 2.72.21 5.38.41 8.05H281.8V277zm37.6 32.18A88.48 88.48 0 11314 337.2a88.48 88.48 0 0188.48-88.47m69.06-64.35l19.42 19.41v25.52l-26.49-26.49a8 8 0 00-5.69-2.36H330.06v-16.08h56.3a8.05 8.05 0 008.05-8v-48.31h16.08v48.26a8 8 0 008.05 8zm-238-144.79h193v16.09h-193zM169.19 152.2h16.09v80.44h-16.09zm-80.44 96.53h16.09v16.49c-2.65-.24-5.32-.41-8-.41s-5.39.17-8 .41zm8 177a72.39 72.39 0 1172.39-72.39 72.4 72.4 0 01-72.34 72.34m104.56-80.43h-16.5a88.59 88.59 0 00-63.93-77v-27.57a8 8 0 00-8.05-8H91.57A48.26 48.26 0 01137 200.46h16.1v40.22a8 8 0 008 8h8.05v24.13a8 8 0 008 8h24.13zm-16.08-80.44v-16.08h8a8 8 0 008-8v-56.3h16.09v80.43zm80.43 96.52h-48.26v-16.08h48.26zm0-32.17h-48.26v-16.09h48.26zm3.29-62.81a8 8 0 00-3.31 6.51V297h-48.24v-16.1h8a8 8 0 008-8v-24.17h24.13a8 8 0 005.68-2.36l16.09-16.09-11.37-11.37-13.73 13.73h-20.8v-20.8l56.3-56.31 10.4 10.4 11.37-11.37-32.17-32.17-11.37 11.37 10.4 10.4-44.93 44.93v-12.17l15-105.15h162.04V112h-24.13a8 8 0 00-8 8v48.26H322a8 8 0 00-8 8v32.18a8 8 0 008 8h15.5z" fill="#282828"/><path d="M167.67 35.43A62.25 62.25 0 01111.41 0H82.18a62.23 62.23 0 01-56.25 35.43A62.3 62.3 0 010 29.82V132.2c0 74.88 96.8 100.44 96.8 100.44s96.79-25.56 96.79-100.44V29.82a62.29 62.29 0 01-25.92 5.61" fill="#fbec42"/><path d="M93.62 147a10 10 0 01-7.05-2.91l-17.86-17.76a10.002 10.002 0 0114.1-14.19L93 122.25l28.74-34.06a10 10 0 1115.26 12.9l-35.73 42.35a10 10 0 01-7.2 3.55h-.44" fill="#282828"/></g></svg>