<svg data-name="Слой 1" xmlns="http://www.w3.org/2000/svg" viewBox="0 0 410.41 512"><defs><clipPath id="a"><path fill="none" d="M0 0h410.41v512H0z"/></clipPath></defs><g clip-path="url(#a)"><path d="M128.69 400.93c-33.91-15.16-55.83-48.6-55.83-85.2V132.2a137.19 137.19 0 0062.63-62.06h145.15a137.24 137.24 0 0062.63 62.06v183.53c0 36.6-21.91 70-55.82 85.2l-79.38 35.49z" fill="#fbec42"/><path d="M400.41 75.86c-36.77 0-66.69-29.54-66.69-65.86a10 10 0 00-10-10H86.7a10 10 0 00-10 10c0 36.32-29.92 65.86-66.7 65.86a10 10 0 00-10 10v229.73c0 64.17 38.18 122.7 97.26 149.11l103.86 46.43a10 10 0 008.17 0l103.86-46.43c59.08-26.41 97.26-84.94 97.26-149.11V85.86a10 10 0 00-10-10m-10 239.73c0 56.29-33.53 107.65-85.42 130.85l-99.78 44.61-99.78-44.61C53.53 423.24 20 371.88 20 315.59V95.29C59.8 90.75 91.48 59.4 96.11 20H314.3c4.63 39.4 36.31 70.75 76.11 75.29z" fill="#282828"/><path d="M267.07 229c0-3.84-.61-4.45-4.43-4.43q-15.3.06-30.59.15c-.78 0-1.56-.08-2.52-.13 2.76-2.2 5.35-3.95 7.56-6.09a14.23 14.23 0 002.46-17 14.49 14.49 0 00-15.62-7.12c-6.39 1.26-9.72 6-12.65 11.1-1.21 2.13-2.15 4.41-3.39 7a25.15 25.15 0 00-1.2-2.58c-2.31-3.7-4.25-7.73-7.1-11a14.38 14.38 0 10-20.13 20.47 67 67 0 005.55 4.12c.45.33.89.69 1.83 1.43h-3.26l-29.4.13c-4.84 0-5.22.4-5.2 5.12 0 5.73.08 11.46.08 17.2 0 2.26 1 3.42 3.3 3.39a16.62 16.62 0 011.88.2v2.89l.26 53.74c0 4.17.58 4.73 4.65 4.71q49.36-.25 98.71-.51c3.85 0 4.48-.63 4.46-4.41q-.13-27.11-.28-54.22v-2.72c5.14-.76 5.14-.76 5.12-5.73l-.09-15.71m-50.59-22a26.36 26.36 0 013.72-5 9.25 9.25 0 1113.09 13.06c-5.11 5-11.54 7.5-18.35 9.13-1.29.3-2.61.43-4.41.72a42.45 42.45 0 015.95-18m-34.26 7.81c-3.58-3.2-3.24-9 .06-12.5s9-4 12.54-.75c6.58 6.15 9.14 14.26 10.8 23.28a29.92 29.92 0 01-13.11-3.31 48.36 48.36 0 01-10.29-6.72m13.17 92.13l-35.6.19c-.1-18.77-.19-37.41-.29-56.16l35.6-.18c.1 18.75.2 37.39.29 56.15m-.27-61.62l-40.72.21c0-5-.05-9.88-.08-15l40.72-.21c0 5 .05 9.93.08 15m5.33-15.07l15.09-.07c0 5 .05 9.89.08 15.1l-15.09.07c0-5.05-.05-10-.08-15.1M216.21 307l-15.33.07V307c-.09-18.83-.19-37.45-.29-56.28l15.16-.08h.17zm41.12-.22l-36.13.22-.3-56.5 36.14-.19zm4.52-61.82l-40.71.21c0-5.06 0-10-.08-15.09l40.71-.21c0 5.16.06 10.05.08 15.09" fill="#282828"/><path d="M267.07 229c0-3.84-.61-4.45-4.43-4.43q-15.3.06-30.59.15c-.78 0-1.56-.08-2.52-.13 2.76-2.2 5.35-3.95 7.56-6.09a14.23 14.23 0 002.46-17 14.49 14.49 0 00-15.62-7.12c-6.39 1.26-9.72 6-12.65 11.1-1.21 2.13-2.15 4.41-3.39 7a25.15 25.15 0 00-1.2-2.58c-2.31-3.7-4.25-7.73-7.1-11a14.38 14.38 0 10-20.13 20.47 67 67 0 005.55 4.12c.45.33.89.69 1.83 1.43h-3.26l-29.4.13c-4.84 0-5.22.4-5.2 5.12 0 5.73.08 11.46.08 17.2 0 2.26 1 3.42 3.3 3.39a16.62 16.62 0 011.88.2v2.89l.26 53.74c0 4.17.58 4.73 4.65 4.71q49.36-.25 98.71-.51c3.85 0 4.48-.63 4.46-4.41q-.13-27.11-.28-54.22v-2.72c5.14-.76 5.14-.76 5.12-5.73zm-50.59-22a26.36 26.36 0 013.72-5 9.25 9.25 0 1113.09 13.06c-5.11 5-11.54 7.5-18.35 9.13-1.29.3-2.61.43-4.41.72a42.45 42.45 0 015.95-17.91zm-34.26 7.81c-3.58-3.2-3.24-9 .06-12.5s9-4 12.54-.75c6.58 6.15 9.14 14.26 10.8 23.28a29.92 29.92 0 01-13.11-3.31 48.36 48.36 0 01-10.29-6.77zm13.17 92.13l-35.6.19c-.1-18.77-.19-37.41-.29-56.16l35.6-.18c.1 18.7.2 37.34.29 56.1zm-.27-61.62l-40.72.21c0-5-.05-9.88-.08-15l40.72-.21c.03 5.01.05 9.9.08 14.95zm5.33-15.07l15.09-.07c0 5 .05 9.89.08 15.1l-15.09.07c-.02-5.1-.05-10.05-.08-15.15zM216.21 307l-15.33.07V307c-.09-18.83-.19-37.45-.29-56.28l15.16-.08h.17zm41.12-.22l-36.13.22-.3-56.5 36.14-.19zm4.52-61.82l-40.71.21c0-5.06 0-10-.08-15.09l40.71-.21c.03 5.13.06 10.03.08 15.07z" fill="none" stroke="#282828" stroke-miterlimit="10" stroke-width="3"/></g></svg>