<svg data-name="Слой 1" xmlns="http://www.w3.org/2000/svg" viewBox="0 0 512 512"><defs><clipPath id="a"><path fill="none" d="M0 0h512v512H0z"/></clipPath></defs><g clip-path="url(#a)"><path d="M256 91.25A164.75 164.75 0 1191.25 256 164.75 164.75 0 01256 91.25" fill="#fbec42"/><path d="M484.3 201.17h-8.48a223.89 223.89 0 00-25.63-61.82l6-6a27.74 27.74 0 000-39.18L417.84 55.8a27.74 27.74 0 00-39.18 0l-6 6a223.89 223.89 0 00-61.82-25.63V27.7A27.73 27.73 0 00283.13 0h-54.26a27.74 27.74 0 00-27.7 27.7v8.48a223.89 223.89 0 00-61.82 25.63l-6-6a27.75 27.75 0 00-39.17 0L55.8 94.16a27.74 27.74 0 000 39.18l6 6a224 224 0 00-25.63 61.82H27.7A27.73 27.73 0 000 228.87v54.26a27.74 27.74 0 0027.7 27.7h8.48a224.15 224.15 0 0025.63 61.82l-6 6a27.73 27.73 0 000 39.17l38.35 38.38a27.74 27.74 0 0039.18 0l6-6a224.2 224.2 0 0061.82 25.63v8.48a27.73 27.73 0 0027.7 27.7h54.26a27.74 27.74 0 0027.7-27.7v-8.48a224.32 224.32 0 0061.82-25.63l6 6a27.73 27.73 0 0039.17 0l38.37-38.37a27.73 27.73 0 000-39.17l-6-6a224.45 224.45 0 0025.63-61.82h8.48a27.74 27.74 0 0027.7-27.7v-54.27a27.73 27.73 0 00-27.7-27.7m7.7 82a7.7 7.7 0 01-7.7 7.7h-16.43a10 10 0 00-9.79 7.94 204.5 204.5 0 01-29 69.86 10 10 0 001.31 12.53l11.64 11.64a7.71 7.71 0 010 10.89l-38.37 38.37a7.71 7.71 0 01-10.89 0l-11.64-11.64a10 10 0 00-12.53-1.31 204.61 204.61 0 01-69.86 29 10 10 0 00-7.94 9.78v16.37a7.7 7.7 0 01-7.7 7.7h-54.22a7.7 7.7 0 01-7.7-7.7v-16.44a10 10 0 00-7.94-9.79 204.5 204.5 0 01-69.86-29 10 10 0 00-12.53 1.31l-11.64 11.68a7.71 7.71 0 01-10.89 0l-38.37-38.37a7.71 7.71 0 010-10.89l11.64-11.64a10 10 0 001.31-12.53 204.61 204.61 0 01-29-69.86 10 10 0 00-9.78-7.94H27.7a7.7 7.7 0 01-7.7-7.7v-54.26a7.7 7.7 0 017.7-7.7h16.44a10 10 0 009.79-7.94 204.5 204.5 0 0129-69.86 10 10 0 00-1.31-12.53L69.94 119.2a7.7 7.7 0 010-10.89l38.37-38.37a7.7 7.7 0 0110.88 0l11.65 11.64a10 10 0 0012.53 1.31 204.73 204.73 0 0169.86-29 10 10 0 007.94-9.78V27.7a7.7 7.7 0 017.7-7.7h54.26a7.71 7.71 0 017.7 7.7v16.44a10 10 0 007.94 9.79 204.37 204.37 0 0169.85 29 10 10 0 0012.54-1.31l11.64-11.68a7.7 7.7 0 0110.89 0l38.37 38.37a7.7 7.7 0 010 10.88l-11.64 11.65a10 10 0 00-1.31 12.53 204.81 204.81 0 0129 69.86 10 10 0 009.78 7.94h16.41a7.7 7.7 0 017.7 7.7z" fill="#282828"/><path d="M247.07 287.18a10 10 0 01-7-2.91l-17.87-17.76a10.002 10.002 0 0114.1-14.19l10.17 10.11 28.73-34.06a10.002 10.002 0 0115.29 12.9l-35.73 42.36a10 10 0 01-7.21 3.54h-.43" fill="#282828"/></g></svg>