<svg xmlns="http://www.w3.org/2000/svg" width="345" height="240"><defs><clipPath id="a"><path fill="#fff" d="M172.734-104.531C267.874-104.531 345-27.398 345 67.75c0 95.148-77.126 172.281-172.266 172.281C77.594 240.031.47 162.898.47 67.751c0-95.15 77.126-172.282 172.265-172.282z"/></clipPath></defs><g clip-path="url(#clip-20979)"><path fill="#faeb42" d="M172.734-104.531C267.874-104.531 345-27.398 345 67.75c0 95.148-77.126 172.281-172.266 172.281C77.594 240.031.47 162.898.47 67.751c0-95.15 77.126-172.282 172.265-172.282z"/><path fill="none" stroke="#faeb42" stroke-miterlimit="20" stroke-width="30" d="M172.734-104.531C267.874-104.531 345-27.398 345 67.75c0 95.148-77.126 172.281-172.266 172.281C77.594 240.031.47 162.898.47 67.751c0-95.15 77.126-172.282 172.265-172.282z" clip-path="url(&quot;#a&quot;)"/></g></svg>