<svg data-name="Слой 1" xmlns="http://www.w3.org/2000/svg" viewBox="0 0 563.39 499.27"><defs><clipPath id="a"><path fill="none" d="M0 0h563.39v499.27H0z"/></clipPath></defs><g clip-path="url(#a)"><path d="M496.59 358.35a8 8 0 00-10.84 3.38A225.88 225.88 0 01285.12 483.2C160.56 483.2 59 381.87 58.78 257.31v-21.79l29.03 29.08a8.033 8.033 0 1011.36-11.36l-42.34-42.37a8 8 0 00-12.3.13l-.55.61-41.63 41.63a8.033 8.033 0 0011.36 11.36l29-29v21.67A242.43 242.43 0 00500 369.19a8 8 0 00-3.39-10.84M549.68 234.67l-29 29V242A242.43 242.43 0 0063.41 130.08a8.031 8.031 0 0014.23 7.45A225.87 225.87 0 01278.27 16.07c124.56 0 226.09 101.33 226.34 225.93v21.78l-29.08-29.07A8 8 0 10464.22 246l42.33 42.36a8.14 8.14 0 006.09 2.82 8 8 0 006.21-2.94l.56-.61L561 246a8 8 0 000-11.36 8 8 0 00-11.36 0" fill="#282828"/><path d="M281.69 126c68 0 123.19 55.37 123.19 123.67s-55.15 123.64-123.19 123.64-123.18-55.37-123.18-123.68S213.66 126 281.69 126" fill="#fbec42"/><path d="M292.33 241.69c-7.2-2.54-15.15-5.61-19.62-9.11-1.4-1.1-2-3.62-1.51-6.27.25-1.32 1.42-5.73 5.93-7.1 7.42-2.23 12.51.73 14.35 2.11a8 8 0 109.52-12.74 31.72 31.72 0 00-11.84-5.31V200a8 8 0 00-15.91 0v3.76l-.7.19a24.74 24.74 0 00-17 19.39c-1.62 8.59 1.18 16.91 7.32 21.72 5.05 4 12 7.33 24.13 11.6 8 2.84 7.87 9.35 7.42 12a13.4 13.4 0 01-13.3 11.3c-7.69.06-10.08-.33-16-4.19a8 8 0 00-8.7 13.31c6.37 4.17 11.07 5.86 16.79 6.47v3.64a8 8 0 0015.91 0v-4.4a28.46 28.46 0 0011.78-6.55 29.8 29.8 0 009.19-16.94c2.22-13.19-4.93-25.11-17.8-29.66" fill="#282828"/><path d="M292.33 241.69c-7.2-2.54-15.15-5.61-19.62-9.11-1.4-1.1-2-3.62-1.51-6.27.25-1.32 1.42-5.73 5.93-7.1 7.42-2.23 12.51.73 14.35 2.11a8 8 0 109.52-12.74 31.72 31.72 0 00-11.84-5.31V200a8 8 0 00-15.91 0v3.76l-.7.19a24.74 24.74 0 00-17 19.39c-1.62 8.59 1.18 16.91 7.32 21.72 5.05 4 12 7.33 24.13 11.6 8 2.84 7.87 9.35 7.42 12a13.4 13.4 0 01-13.3 11.3c-7.69.06-10.08-.33-16-4.19a8 8 0 00-8.7 13.31c6.37 4.17 11.07 5.86 16.79 6.47v3.64a8 8 0 0015.91 0v-4.4a28.46 28.46 0 0011.78-6.55 29.8 29.8 0 009.19-16.94c2.26-13.14-4.89-25.06-17.76-29.61z" fill="none" stroke="#282828" stroke-miterlimit="10" stroke-width="5"/></g></svg>