<svg data-name="Слой 1" xmlns="http://www.w3.org/2000/svg" viewBox="0 0 468.14 512"><defs><clipPath id="a"><path fill="none" d="M0 0h468.14v512H0z"/></clipPath></defs><g clip-path="url(#a)"><path d="M406.8 32.47h-35V10a10 10 0 00-10-10h-331A30.86 30.86 0 000 30.83v450.34A30.86 30.86 0 0030.83 512h331a10 10 0 0010-10v-65.3a10 10 0 00-20 0V492H72.59V20h279.24v242.57a10 10 0 0020 0v-55.75h35a10 10 0 0010-10V42.47a10 10 0 00-10-10M52.59 492H30.83A10.84 10.84 0 0120 481.17V30.83A10.84 10.84 0 0130.83 20h21.76zm319.24-388.08h25v31.44h-25zm25-20h-25V52.47h25zm0 102.9h-25v-31.46h25z" fill="#282828"/><path d="M361.16 245.89a106.93 106.93 0 11-107 106.92 107 107 0 01107-106.92" fill="#fbec42"/></g><path d="M324.64 341h-15v25.65h-9.21v-33.11h24.24zM332.88 365.05a16.91 16.91 0 010-29.95 21.12 21.12 0 0118.85 0 16.9 16.9 0 010 29.95 21.12 21.12 0 01-18.85 0zm14-6.71a8.53 8.53 0 003.22-3.33 10.91 10.91 0 000-9.87 8.46 8.46 0 00-3.22-3.33 9.3 9.3 0 00-9.07 0 8.51 8.51 0 00-3.21 3.33 10.91 10.91 0 000 9.87 8.57 8.57 0 003.21 3.33 9.3 9.3 0 009.07 0z" fill="#282828"/><path d="M372.47 365.07A16.4 16.4 0 01366 359a17.84 17.84 0 010-17.77 16.49 16.49 0 016.49-6.12 19.64 19.64 0 019.33-2.19 20.07 20.07 0 018.18 1.6 15.84 15.84 0 016 4.63l-5.95 5.39a9.79 9.79 0 00-7.79-3.87 9.59 9.59 0 00-4.8 1.18 8.17 8.17 0 00-3.26 3.33 11.08 11.08 0 000 9.87 8.23 8.23 0 003.26 3.33 9.59 9.59 0 004.8 1.18 9.79 9.79 0 007.79-3.87L396 361a15.72 15.72 0 01-6 4.62 19.91 19.91 0 01-8.18 1.61 19.53 19.53 0 01-9.35-2.16zM426.64 341h-10.11v25.65h-9.22V341h-10.15v-7.42h29.48z" fill="#282828"/></svg>