<svg data-name="Слой 1" xmlns="http://www.w3.org/2000/svg" viewBox="0 0 511.84 509.86"><defs><clipPath id="a"><path fill="none" d="M0 0h511.84v509.86H0z"/></clipPath></defs><g clip-path="url(#a)"><path d="M115.15 506.9a10 10 0 0014.11.08l48.47-47.75a30.21 30.21 0 007.12-31l10.42-10a29.8 29.8 0 0120.82-8.41H349a89.53 89.53 0 0062.76-25.5c.69-.68-5.28 6.36 90.67-108.31A40.028 40.028 0 00441.57 224l-59 60.64a40.18 40.18 0 00-31.08-14.89H240a129.1 129.1 0 00-50.06-10c-48.14 0-90.18 22.23-112.74 63.92A29.83 29.83 0 0050.48 332L2.92 379.69a10 10 0 000 14.11zm74.79-227.12a109.13 109.13 0 0144 9.16 9.83 9.83 0 004 .84h113.55a20 20 0 110 40h-81.57a10 10 0 000 20h81.57a40 40 0 0040-40 41.23 41.23 0 00-.35-5.22c57.06-58.66 65.11-66.91 65.45-67.32a20.002 20.002 0 1130.54 25.84l-89.67 107.2A69.63 69.63 0 01349 389.75H216.09a49.67 49.67 0 00-34.7 14l-8.5 8.2-78.32-78.3c18.3-34.34 52.65-53.87 95.37-53.87M64.62 346.12a10 10 0 0112.38-1.4c1.73 1-3.24-3.47 86.59 86.23a10 10 0 01.06 14.09l-41.32 40.71-98.23-99z" fill="#282828"/><path d="M407.89 108.9A108.85 108.85 0 11299 0a108.88 108.88 0 01108.89 108.9" fill="#fbec42"/><path d="M298.2 132.89c-3.9 0-8.69-.57-12-4.22-1.14-1.29-2.14-2.49-3.11-3.49-7.81-8.22-21.27 3.2-13.12 13.88l2 2.54a29.5 29.5 0 006.9 5.57 33.55 33.55 0 0010.81 4.42v14.1a8.86 8.86 0 008.81 8.85 9 9 0 009-8.85V151.5a32.11 32.11 0 0016.34-9.3q6.75-7.06 6.75-18.76c0-5.31-1-9.73-3.07-13.3a17.55 17.55 0 00-7.56-7.43A72.05 72.05 0 00310 99a74.79 74.79 0 00-9.9-2.25 18.43 18.43 0 01-7.55-2.69 6.17 6.17 0 01-3.08-5.34c0-10.5 15.39-9.22 22.18-3.51 10 8.42 21.21-7 9.61-15.7L320 68.34a29.16 29.16 0 00-4.82-2.71 33.6 33.6 0 00-7.64-2.54V50.84a8.84 8.84 0 10-17.68 0V63a25.81 25.81 0 00-21.3 25.49c0 6 1.4 11 4.19 14.87a22.87 22.87 0 0010.21 8.25 83.86 83.86 0 0012 3.83 62 62 0 0110.21 3.25c2.8 1.2 4.19 2.89 4.19 5.09 0 6.1-3.7 9.16-11.09 9.16" fill="#282828"/></g></svg>