<svg data-name="Слой 1" xmlns="http://www.w3.org/2000/svg" viewBox="0 0 512 505.22"><defs><clipPath id="a"><path fill="none" d="M0 0h512v505.22H0z"/></clipPath></defs><g clip-path="url(#a)"><path d="M72 332.8a10 10 0 00-10 10v85.33a10 10 0 0010 10h112.86a10 10 0 0010-10V342.8a10 10 0 00-10-10zm102.82 85.33H82V352.8h92.82z" fill="#282828"/><path d="M512 173a45.24 45.24 0 00-45.13-45.27H359.21L351 134c0 1.79 8.15 12 8.05 13.75h107.82A25.22 25.22 0 01492 173v30.08H332.83a139.32 139.32 0 01-25.71 20H492v39.07H20v-39.07h197.71a138.66 138.66 0 01-25.71-20H20V173a25.22 25.22 0 0125.12-25.27h120.66c-.11-1.74 11.07-9.21 11.07-11l-11.24-9H45.12A45.24 45.24 0 000 173v287a45.25 45.25 0 0045.12 45.27h421.75A45.25 45.25 0 00512 460v-88.7-.63V173zm-20 198.25V460a25.23 25.23 0 01-25.13 25.27H45.12A25.23 25.23 0 0120 460V282.15h472V371.27" fill="#282828"/><path d="M393.37 328.71A56.76 56.76 0 10450 385.47a56.74 56.74 0 00-56.59-56.76m0 93.51A36.76 36.76 0 11430 385.47a36.72 36.72 0 01-36.59 36.75" fill="#282828"/><path d="M256 0c68 0 123.19 55.37 123.19 123.67S324 247.34 256 247.34 132.81 192 132.81 123.67 188 0 256 0" fill="#fbec42"/><path d="M247.07 154.85a10 10 0 01-7-2.91l-17.87-17.76A10 10 0 01236.25 120l10.17 10.11L275.15 96a10.002 10.002 0 0115.29 12.9l-35.73 42.4a10 10 0 01-7.21 3.54h-.43" fill="#282828"/></g></svg>