<svg data-name="Слой 1" xmlns="http://www.w3.org/2000/svg" viewBox="0 0 337.56 512"><defs><clipPath id="a"><path fill="none" d="M0 0h337.56v512H0z"/></clipPath></defs><g clip-path="url(#a)"><path d="M333 125.2L178.78 24.75V10a10 10 0 00-20 0v14.75L4.54 125.2A10 10 0 000 133.58V502a10 10 0 0010 10h317.56a10 10 0 0010-10V133.58a10 10 0 00-4.56-8.38m-164.24 6.49a10 10 0 0010-10V115a20.07 20.07 0 11-20 0v6.65a10 10 0 0010 10M317.56 492H20V139l138.78-90.39v45a40.06 40.06 0 1020 0v-45L317.56 139z" fill="#282828"/><path fill="#fbec42" d="M58.08 231.91h221.41v222.14H58.08z"/><path d="M141.78 413.71a10 10 0 01-9.21-13.87l53.17-126.69a10 10 0 0118.44 7.74L151 407.58a10 10 0 01-9.23 6.13M126.61 335.72c-18.47 0-33.49-16.73-33.49-37.3s15-37.3 33.49-37.3 33.49 16.73 33.49 37.3-15 37.3-33.49 37.3m0-54.6c-7.31 0-13.49 7.92-13.49 17.3s6.18 17.3 13.49 17.3 13.49-7.92 13.49-17.3-6.18-17.3-13.49-17.3M208.42 422.34c-18.47 0-33.5-16.73-33.5-37.3s15-37.3 33.5-37.3 33.49 16.73 33.49 37.3-15 37.3-33.49 37.3m0-54.6c-7.32 0-13.5 7.92-13.5 17.3s6.18 17.3 13.5 17.3 13.49-7.92 13.49-17.3-6.18-17.3-13.49-17.3" fill="#282828"/></g></svg>