<svg data-name="Слой 1" xmlns="http://www.w3.org/2000/svg" viewBox="0 0 410.41 512"><defs><clipPath id="a"><path fill="none" d="M0 0h410.41v512H0z"/></clipPath></defs><g clip-path="url(#a)"><path d="M125.83 403.66C91.91 388.5 70 355.05 70 318.45V134.92a137.15 137.15 0 0062.63-62.06h145.15a137.19 137.19 0 0062.63 62.06v183.53c0 36.6-21.91 70.05-55.83 85.21l-79.37 35.48z" fill="#fbec42"/><path d="M400.41 75.86c-36.77 0-66.69-29.54-66.69-65.86a10 10 0 00-10-10H86.7a10 10 0 00-10 10c0 36.32-29.92 65.86-66.7 65.86a10 10 0 00-10 10v229.73c0 64.17 38.18 122.7 97.26 149.11l103.86 46.43a10 10 0 008.17 0l103.86-46.43c59.08-26.41 97.26-84.94 97.26-149.11V85.86a10 10 0 00-10-10m-10 239.73c0 56.29-33.53 107.65-85.42 130.85l-99.78 44.61-99.78-44.61C53.53 423.24 20 371.88 20 315.59V95.29C59.8 90.75 91.48 59.4 96.11 20H314.3c4.63 39.4 36.31 70.75 76.11 75.29z" fill="#282828"/><path d="M138.92 198.22a3.22 3.22 0 011.49.84l45.79 45.79 8.28-8.28-45.79-45.8a3.17 3.17 0 01-.84-1.49L145 177.79l-19.11-10.92-9.35 9.36 10.92 19.12z" fill="#282828"/><path d="M179.64 302.67L252.3 230a3.23 3.23 0 013-.84 31.88 31.88 0 0039.78-31c0-.6 0-1.21-.06-1.82l-16.9 16.9a3.19 3.19 0 01-3.28.77l-19.22-6.41a3.17 3.17 0 01-2-2l-6.41-19.22A3.21 3.21 0 01248 183l16.9-16.9a31.88 31.88 0 00-32.9 39.77 3.17 3.17 0 01-.84 3l-72.66 72.66a3.22 3.22 0 01-3 .84 31.61 31.61 0 00-7.75-1 32.25 32.25 0 1031 24.29 3.2 3.2 0 01.85-3m-24.09 23.6H140l-7.69-12.81 7.69-12.81h15.59l7.69 12.82zm12.37-37.51l70.48-70.48 4.53 4.53-70.49 70.48zM268.86 344.25a19.43 19.43 0 0025-25z" fill="#282828"/><path d="M289.43 312.29l-36-36a10 10 0 01-14.1-14.07l-5.1-5.11-27.5 27.51 5.12 5.13A10 10 0 01226 303.83l36 36c.39.39.81.75 1.23 1.11l27.39-27.4c-.35-.42-.72-.83-1.11-1.22m-19 13l-32-32 4.53-4.53 32 32z" fill="#282828"/></g></svg>