<svg data-name="Слой 1" xmlns="http://www.w3.org/2000/svg" viewBox="0 0 503 511.88"><defs><clipPath id="a"><path fill="none" d="M0 0h503v511.88H0z"/></clipPath></defs><g clip-path="url(#a)"><path d="M352.9 108.9A108.84 108.84 0 11244.06 0 108.87 108.87 0 01352.9 108.9" fill="#fbec42"/><path d="M243.22 132.89c-3.9 0-8.69-.57-12-4.22-1.14-1.29-2.14-2.49-3.11-3.49-7.81-8.22-21.27 3.2-13.12 13.88l2 2.54a29.5 29.5 0 006.9 5.57 33.46 33.46 0 0010.81 4.42v14.1a8.86 8.86 0 008.81 8.85 9 9 0 009-8.85V151.5a32.15 32.15 0 0016.34-9.3q6.75-7.06 6.75-18.76c0-5.31-1-9.73-3.08-13.3a17.47 17.47 0 00-7.55-7.43 71.72 71.72 0 00-9.92-3.71 74.67 74.67 0 00-9.89-2.25 18.53 18.53 0 01-7.56-2.69 6.18 6.18 0 01-3.07-5.34c0-10.5 15.39-9.22 22.18-3.51 10 8.42 21.21-7 9.61-15.7L265 68.34a29.6 29.6 0 00-4.82-2.71 33.6 33.6 0 00-7.64-2.54V50.84a8.84 8.84 0 10-17.68 0V63a25.81 25.81 0 00-21.3 25.49c0 6 1.4 11 4.19 14.87a22.75 22.75 0 0010.21 8.25 83.86 83.86 0 0012 3.83 62.35 62.35 0 0110.21 3.25c2.8 1.2 4.19 2.89 4.19 5.09q0 9.17-11.09 9.16" fill="#282828"/><path d="M496.93 288.73l-82.17-105.25a29.23 29.23 0 00-40.62-5.28l-53.77 41a28.45 28.45 0 00-11.07 19.17 28.06 28.06 0 00-.23 3.42c-20.5-1.56-41.68 0-62.24 13.37l-.92.6-52-7.95a28.76 28.76 0 00-11.25-24.59l-53.79-41a29.21 29.21 0 00-40.62 5.23l-19.59 25.1-60 76.88-2.56 3.27a28.67 28.67 0 005.22 40.47l53.8 41a29 29 0 0017.56 5.89 29.5 29.5 0 0010.42-1.86l7 9.53a27.47 27.47 0 00-1.33 23.2c4.35 11.44 14.6 19.2 25.7 19.57a29.49 29.49 0 001.47 4.87c4.48 11.09 14.69 18.63 25.67 19.13.05.28.08.57.14.86a30.07 30.07 0 0019.83 22.08 26.9 26.9 0 007.63 1.33 26.18 26.18 0 006.12 11.5 26.61 26.61 0 0019.67 8.86 29.48 29.48 0 0017.45-6.06l11.42 10.67a29.86 29.86 0 0020.39 8.14 28.39 28.39 0 0020.2-8.36A34.55 34.55 0 00282 492.1a28.37 28.37 0 008.25 1.27 26.11 26.11 0 0018.81-8 31.13 31.13 0 007.94-14.98h1.53a29.74 29.74 0 0021-8.47 28.69 28.69 0 007.62-13.52 29.73 29.73 0 005.78.57 29.06 29.06 0 007.23-.91 27 27 0 0019.6-19.83c2.18-9-.07-18.46-6.18-27.07 15.83-12.74 22.24-19 29.48-30.76a29.05 29.05 0 0017.31 5.64 28.72 28.72 0 0017.59-5.92l53.81-41a28.69 28.69 0 005.23-40.46M89.79 356.54a9.1 9.1 0 01-12.47 1.63l-53.78-41a8.49 8.49 0 01-1.56-12l5.74-7.36L36 287.26l58.21-74.58 9.94-12.74a9.1 9.1 0 0112.5-1.62l53.8 41a8.52 8.52 0 011.55 12zm39.92 51.72a6.88 6.88 0 01-4.46 2.11c-2.89 0-6.26-2.9-7.67-6.6-1.27-3.36-.68-6.17 1.78-8.35l34-30.19c2.84-2.52 5.7-3.86 8.27-3.86a8.49 8.49 0 017.59 5.52c1.1 2.83.44 5.36-1.94 7.51l-5.92 5.34-.09.07-.65.59zm27.46 24.11a6.79 6.79 0 01-4.46 2c-3.06 0-6.62-2.88-8.1-6.56-1.64-4 .3-5.91.92-6.51.39-.37.86-.83 1.36-1.35l.11-.09c1.94-1.74 19-17.17 27.18-24.55l.61-.55c2.77-2.42 5.57-3.71 8.11-3.71 4 0 7 3.07 8.06 5.91a6.18 6.18 0 01-1.9 7.36l-2.06 1.84h-.05zm30.06 21.76l-.41.39-2.36 2.13c-2.11 1.9-4.21 2.42-6.63 1.63a10 10 0 01-6.36-7c-.54-2.65.51-5.1 3.2-7.46l3.33-2.92.24-.23 22-19.39c5.28-4.67 10.51-5.14 14-1.24.49.54 4.64 5.48-.43 10.06l-13.53 12.21-.44.38-.14.15L187.38 454a1.58 1.58 0 01-.15.12m38.19 9.44l-9.25 8.32-.11.09-4 3.61c-6.59 5.91-10.67 2.41-11.77 1.19s-3.11-4.24.25-7.47L214 457.13a15.43 15.43 0 012.93-2.05l.12-.06c5.45-2.91 8.4.48 9.17 1.59a4.86 4.86 0 01-.84 7m134.67-40.06a6.69 6.69 0 01-5 5.05c-4.25 1.09-9.62-1.27-14.53-6.31q-.56-.62-1.14-1.2l-38.07-37.63a10.09 10.09 0 00-14.18 14.35l38 37.56a1.8 1.8 0 00.19.2 8.5 8.5 0 012.37 5.91 8.72 8.72 0 01-2.55 6.26 9.43 9.43 0 01-6.7 2.57h-.11a9 9 0 01-6-2.17 25.44 25.44 0 00-2.07-2.37l-27.83-27.86a10.083 10.083 0 00-14.27 14.25l26.39 26.43a10.31 10.31 0 001.08 1.33l1.12 1.16c1.45 2.75.55 7.4-2.22 10.25-4.27 4.4-10.29.52-14.57-3.5l-11.92-11.22a10.084 10.084 0 10-13.83 14.68l9.11 8.57.06.07c.21.19.52.48.54 1.5 0 2.36-1.53 5.6-3.8 7.88-3.32 3.32-8.83 3.2-12.55-.27l-10-9.33 1.22-1.09c9.89-8.89 11.49-22.68 3.88-33.54a26.79 26.79 0 00-9.06-8.19c4.91-9.67 3.54-21.41-4.38-30.26a28 28 0 00-17.81-9.16 27.52 27.52 0 00-1.7-7.59 29.38 29.38 0 00-20-18.06 26.87 26.87 0 00-1.73-12.2 28.64 28.64 0 00-26.42-18.44c-7.58 0-15.07 3.09-21.66 8.94L114.26 373l-5.66-7.75 76.76-98.33 35.1 5.37-5.31 3.45c-28.44 18.45-30.52 39.91-23 53.84 6 11.15 18.06 17.52 30.84 17.52a39.09 39.09 0 0015.79-3.35l.41-.19 26.58-13.18 15.35 14h.05l70.94 63.09c6.08 5.41 9 11.4 7.92 16m-.85-36.72l-64.56-57.42-20.4-18.57a10.08 10.08 0 00-11.22-1.54l-32.55 16.14c-8.84 3.8-17.54.18-20.56-5.4-4.15-7.68 2.07-18.15 16.23-27.33l31.68-20.56C275 260.9 293 260 317.67 262.9l71.38 91.47c-7.53 13.52-11.53 17.82-29.81 32.42m123.51-79.32a8.44 8.44 0 01-3.27 5.67l-53.83 41a8.72 8.72 0 01-5.35 1.79 8.92 8.92 0 01-7.11-3.41L331 247.24a8.51 8.51 0 011.57-12l53.75-41a9.06 9.06 0 0112.5 1.63L481 301.13a8.45 8.45 0 011.73 6.34" fill="#282828"/></g></svg>