<svg xmlns="http://www.w3.org/2000/svg" width="12" height="9"><path fill="#fff" d="M1.342 4.935h8.536L6.98 7.723a.514.514 0 000 .746.57.57 0 00.775 0l3.834-3.688a.513.513 0 000-.745L7.754.35a.557.557 0 00-.387-.154c-.14 0-.28.05-.388.154a.512.512 0 000 .744l2.9 2.788H1.342a.537.537 0 00-.548.526c0 .29.245.527.548.527z"/><path fill="#282828" d="M1.342 4.935h8.536L6.98 7.723a.514.514 0 000 .746.57.57 0 00.775 0l3.834-3.688a.513.513 0 000-.745L7.754.35a.557.557 0 00-.387-.154c-.14 0-.28.05-.388.154a.512.512 0 000 .744l2.9 2.788H1.342a.537.537 0 00-.548.526c0 .29.245.527.548.527z"/></svg>