<svg xmlns="http://www.w3.org/2000/svg" width="205" height="188"><defs><clipPath id="a"><path fill="#fff" d="M172.734-156.531C267.874-156.531 345-79.398 345 15.75c0 95.148-77.126 172.281-172.266 172.281C77.594 188.031.47 110.898.47 15.751c0-95.15 77.126-172.282 172.265-172.282z"/></clipPath></defs><g clip-path="url(#clip-15239)"><path fill="#faeb42" d="M172.734-156.531C267.874-156.531 345-79.398 345 15.75c0 95.148-77.126 172.281-172.266 172.281C77.594 188.031.47 110.898.47 15.751c0-95.15 77.126-172.282 172.265-172.282z"/><path fill="none" stroke="#faeb42" stroke-miterlimit="20" stroke-width="30" d="M172.734-156.531C267.874-156.531 345-79.398 345 15.75c0 95.148-77.126 172.281-172.266 172.281C77.594 188.031.47 110.898.47 15.751c0-95.15 77.126-172.282 172.265-172.282z" clip-path="url(&quot;#a&quot;)"/></g></svg>