<svg data-name="Слой 1" xmlns="http://www.w3.org/2000/svg" viewBox="0 0 40 40"><path d="M16.81 23.82l.72 2.8 1.55-1.15-2-1.41a.78.78 0 01-.27-.24zM26.9 12.71L11.57 19l4 1.56a.94.94 0 01.58.66l.51 2a1 1 0 01.28-.59zM21.26 24.64l5.38 3.74 2.9-15.59-10.45 10.33z" fill="#4bbcf3" fill-rule="evenodd"/><path d="M20 0a20 20 0 1020 20A20 20 0 0020 0zm12 10.06v.11l-3.73 20a1 1 0 01-.56.72.94.94 0 01-.37.07.9.9 0 01-.53-.17l-6-4.19-3.29 2.4a.92.92 0 01-.88.13 1 1 0 01-.6-.67l-1.62-6.31-5.81-2.25a1 1 0 010-1.82l22.08-9A.84.84 0 0131 9h.12a.87.87 0 01.6.28l.05.05a1 1 0 01.23.57z" fill="#4bbcf3" fill-rule="evenodd"/></svg>