<svg data-name="Слой 1" xmlns="http://www.w3.org/2000/svg" viewBox="0 0 40 40"><path d="M20 0a20 20 0 1020 20A20 20 0 0020 0zm12.5 16.72v3.43c0 3.15-.83 5.46-2.54 7.07s-4.02 2.43-7.45 2.78h-4.07l-2.76 2.74a.86.86 0 01-1.21 0 .88.88 0 010-1.23l3-3a.88.88 0 01.61-.25h4.29c6-.67 8.39-3 8.39-8.16v-3.38a7.41 7.41 0 00-2-5.6c-1.73-1.68-4.67-2.5-8.74-2.41-9 .17-10.78 3.19-10.78 8v3.43c0 3.16 1.68 6.79 4.8 7.29a.861.861 0 11-.28 1.7c-4.11-.66-6.25-5-6.25-9v-3.41c0-3.36.9-5.65 2.83-7.22s5.05-2.43 9.6-2.5 8 .87 10 2.89a9.15 9.15 0 012.56 6.83zm-17.21-1.9a.29.29 0 00-.13 0 1.55 1.55 0 00-.93.71 1.37 1.37 0 00.05 1.07 14.18 14.18 0 003.1 4.72 14.29 14.29 0 004.76 3.06 1.35 1.35 0 001.08.05 1.49 1.49 0 00.71-.92.19.19 0 000-.13 7.46 7.46 0 00-2.13-1.56 1.3 1.3 0 00-.18.23.88.88 0 01-1.21.22.84.84 0 01-.21-1.18 1.92 1.92 0 011.7-1 4.8 4.8 0 012.06 1 4.37 4.37 0 011.6 1.65 1.88 1.88 0 010 1.3A3.17 3.17 0 0123.94 26a2.86 2.86 0 01-1.15.24 3.39 3.39 0 01-1.3-.26 16.17 16.17 0 01-5.33-3.44 16 16 0 01-3.49-5.29 3 3 0 010-2.43 3.18 3.18 0 012-1.63 1.93 1.93 0 011.32 0 4.42 4.42 0 011.66 1.58 4.8 4.8 0 011 2 1.88 1.88 0 01-1 1.69.88.88 0 01-1.21-.22.86.86 0 01.23-1.19 1 1 0 00.22-.18 6.84 6.84 0 00-1.6-2.05zm5.25-.91a3.91 3.91 0 013.92 3.88.87.87 0 11-1.73 0 2.18 2.18 0 00-2.19-2.16.86.86 0 110-1.72zm-.86-2.17a.86.86 0 01.86-.86 7 7 0 014.93 2 6.86 6.86 0 012 4.89.87.87 0 01-.87.85.86.86 0 01-.86-.86 5.13 5.13 0 00-1.54-3.67 5.22 5.22 0 00-3.7-1.52.85.85 0 01-.82-.83z" fill="#675dac" fill-rule="evenodd"/></svg>