<svg data-name="Слой 1" xmlns="http://www.w3.org/2000/svg" viewBox="0 0 40 40"><path d="M26.49 10.44A11.17 11.17 0 009.1 19.6a11 11 0 002.12 6.49l-1.39 4.1 4.28-1.36a11.08 11.08 0 1012.38-18.39zm.27 13.72a3.3 3.3 0 01-2.2 1.54c-.6.05-.59.48-3.9-.81s-5.38-4.65-5.55-4.89a6.13 6.13 0 01-1.32-3.33A3.61 3.61 0 0114.92 14a1.25 1.25 0 01.87-.4h.62c.19 0 .47-.12.73.53s.92 2.23 1 2.4a.56.56 0 010 .56 2.08 2.08 0 01-.32.54c-.17.19-.35.42-.49.56a.46.46 0 00-.13.65 9.43 9.43 0 001.8 2.27 8.71 8.71 0 002.62 1.6.5.5 0 00.7-.08c.19-.21.81-.94 1-1.26v-.05a.51.51 0 01.7-.11c.29.1 1.89.89 2.22 1a2.07 2.07 0 01.62.38 2.67 2.67 0 01-.1 1.57z" fill="#2cab1c" fill-rule="evenodd"/><path d="M20 0a20 20 0 1020 20A20 20 0 0020 0zm.08 32.75a13.22 13.22 0 01-6.24-1.63L6.5 33.45l2.39-7.06A13.08 13.08 0 017 19.6a13.26 13.26 0 0126.51 0 13.28 13.28 0 01-13.43 13.15z" fill="#2cab1c" fill-rule="evenodd"/></svg>