<svg data-name="Слой 1" xmlns="http://www.w3.org/2000/svg" viewBox="0 0 237.65 429.97"><defs><clipPath id="a"><path fill="none" d="M0 0h237.65v429.98H0z"/></clipPath></defs><g clip-path="url(#a)"><path d="M72.23 430a11.53 11.53 0 01-4.18-.52 15.35 15.35 0 01-11.5-16.19l8.88-162H15.8a15.6 15.6 0 01-12-5.75 16.83 16.83 0 01-3.67-13.05L39.31 13.06A16.22 16.22 0 0155 0h121.2a15.57 15.57 0 0112.54 6.27 14.15 14.15 0 012.62 13.58l-24 95.61h54.34c5.74 0 10.45 3.14 13.58 7.84a14.38 14.38 0 01.52 15.15L86.33 421.62a16.46 16.46 0 01-14.1 8.38M34.61 220h47.54a16.25 16.25 0 0111.5 4.7 13.89 13.89 0 014.18 11.5l-5.75 107.1 104-197H148a15.59 15.59 0 01-12.56-6.3 14.16 14.16 0 01-2.61-13.59l24-95.6H68.05z" fill="#fff"/></g></svg>