<svg data-name="Слой 1" xmlns="http://www.w3.org/2000/svg" viewBox="0 0 250.84 335.75"><defs><clipPath id="a"><path fill="none" d="M0 0h250.84v335.76H0z"/></clipPath></defs><g clip-path="url(#a)"><path d="M213.75 36.17C190.57 13.29 158.52.44 123.51 0 56.7 1 1.28 55.78 0 122.16a124.61 124.61 0 0050.8 102.6c12.5 9.22 20 25 20 42.21v37.38c0 15.12 8.23 31.4 26.31 31.4h56.63A26.34 26.34 0 00180 309.44v-42.27c0-17.26 7.66-33.24 20.49-42.75a124.87 124.87 0 0050.32-99.78 123.4 123.4 0 00-37.09-88.47m-58 275.25L97.1 312l-.6-.82c-.33-.45-1.41-2.27-1.41-6.79v-25.26h60.63zM186 204.9c-15.29 11.4-25.6 28.53-29 48.26l-.29 1.66h-62.5l-.28-1.67c-3.36-19.76-13.55-36.8-28.69-48a100.24 100.24 0 01-40.9-82.54c1-52.52 46.6-97.56 99.56-98.34h1.47a100.77 100.77 0 0171.29 29.18A99.74 99.74 0 01186 204.9" fill="#fff"/></g></svg>