<svg data-name="Слой 1" xmlns="http://www.w3.org/2000/svg" viewBox="0 0 344.56 519"><defs><clipPath id="a"><path fill="none" d="M0 0h344.56v519H0z"/></clipPath></defs><g clip-path="url(#a)"><path d="M336.52 128.7L182.28 28.25V13.5a10 10 0 00-20 0v14.75L8 128.7a10 10 0 00-4.54 8.38V505.5a10 10 0 0010 10h317.6a10 10 0 0010-10V137.08a10 10 0 00-4.54-8.38m-164.24 6.49a10 10 0 0010-10v-6.65a20.06 20.06 0 11-20 0v6.65a10 10 0 0010 10M321.06 495.5H23.5v-353l138.78-90.39v45a40.07 40.07 0 1020 0v-45l138.78 90.39z" fill="#fff"/><path d="M336.52 128.7L182.28 28.25V13.5a10 10 0 00-20 0v14.75L8 128.7a10 10 0 00-4.54 8.38V505.5a10 10 0 0010 10h317.6a10 10 0 0010-10V137.08a10 10 0 00-4.54-8.38zm-164.24 6.49a10 10 0 0010-10v-6.65a20.06 20.06 0 11-20 0v6.65a10 10 0 0010 10zM321.06 495.5H23.5v-353l138.78-90.39v45a40.07 40.07 0 1020 0v-45l138.78 90.39z" fill="none" stroke="#fff" stroke-miterlimit="10" stroke-width="7"/><path d="M145.28 417.21a10 10 0 01-9.21-13.87l53.17-126.69a10 10 0 0118.44 7.74l-53.17 126.69a10 10 0 01-9.23 6.13" fill="#fff"/><path d="M145.28 417.21a10 10 0 01-9.21-13.87l53.17-126.69a10 10 0 0118.44 7.74l-53.17 126.69a10 10 0 01-9.23 6.13z" fill="none" stroke="#fff" stroke-miterlimit="10" stroke-width="7"/><path d="M130.11 339.22c-18.47 0-33.49-16.73-33.49-37.3s15-37.3 33.49-37.3 33.49 16.73 33.49 37.3-15 37.3-33.49 37.3m0-54.6c-7.32 0-13.49 7.92-13.49 17.3s6.17 17.3 13.49 17.3 13.49-7.92 13.49-17.3-6.18-17.3-13.49-17.3" fill="#fff"/><path d="M130.11 339.22c-18.47 0-33.49-16.73-33.49-37.3s15-37.3 33.49-37.3 33.49 16.73 33.49 37.3-15.02 37.3-33.49 37.3zm0-54.6c-7.32 0-13.49 7.92-13.49 17.3s6.17 17.3 13.49 17.3 13.49-7.92 13.49-17.3-6.18-17.3-13.49-17.3z" fill="none" stroke="#fff" stroke-miterlimit="10" stroke-width="7"/><path d="M211.92 425.84c-18.47 0-33.5-16.73-33.5-37.3s15-37.3 33.5-37.3 33.49 16.73 33.49 37.3-15 37.3-33.49 37.3m0-54.6c-7.32 0-13.5 7.92-13.5 17.3s6.18 17.3 13.5 17.3 13.49-7.92 13.49-17.3-6.18-17.3-13.49-17.3" fill="#fff"/><path d="M211.92 425.84c-18.47 0-33.5-16.73-33.5-37.3s15-37.3 33.5-37.3 33.49 16.73 33.49 37.3-15.03 37.3-33.49 37.3zm0-54.6c-7.32 0-13.5 7.92-13.5 17.3s6.18 17.3 13.5 17.3 13.49-7.92 13.49-17.3-6.18-17.3-13.49-17.3z" fill="none" stroke="#fff" stroke-miterlimit="10" stroke-width="7"/></g></svg>