<?xml version="1.0" encoding="UTF-8"?>
<!DOCTYPE svg PUBLIC "-//W3C//DTD SVG 1.1//EN" "http://www.w3.org/Graphics/SVG/1.1/DTD/svg11.dtd">
<!-- Creator: CorelDRAW 2020 (64-Bit) -->
<svg xmlns="http://www.w3.org/2000/svg" xml:space="preserve" width="62.7904mm" height="69.0186mm" version="1.1" style="shape-rendering:geometricPrecision; text-rendering:geometricPrecision; image-rendering:optimizeQuality; fill-rule:evenodd; clip-rule:evenodd"
viewBox="0 0 439.44 483.03"
 xmlns:xlink="http://www.w3.org/1999/xlink"
 xmlns:xodm="http://www.corel.com/coreldraw/odm/2003">
 <defs>
  <style type="text/css">
   <![CDATA[
    .fil0 {fill:#FEFEFE;fill-rule:nonzero}
   ]]>
  </style>
 </defs>
 <g id="Слой_x0020_1">
  <metadata id="CorelCorpID_0Corel-Layer"/>
  <g id="_1817606943328">
   <g id="_1819090460192">
    <g id="surface1">
     <path class="fil0" d="M329.2 209.1l0 -91.41c0,-2.62 -1.21,-5.03 -2.92,-6.95l-102.48 -107.62c-1.91,-2.01 -4.64,-3.12 -7.35,-3.12l-162.49 0c-30,0 -53.96,24.46 -53.96,54.47l0 307.25c0,30 23.96,54.06 53.96,54.06l128.26 0c24.26,40.27 68.36,67.25 118.59,67.25 76.31,0 138.63,-62.02 138.63,-138.43 0.1,-66.75 -47.82,-122.52 -110.23,-135.5l-0.01 0zm-102.68 -173.76l68.76 72.38 -44.6 0c-13.29,0 -24.16,-10.97 -24.16,-24.26l0 -48.12zm-172.56 360.31c-18.83,0 -33.82,-15.1 -33.82,-33.93l0 -307.25c0,-18.93 15,-34.33 33.82,-34.33l152.42 0 0 63.33c0,24.46 19.83,44.4 44.3,44.4l58.39 0 0 78.63c-3.02,-0.1 -5.44,-0.4 -8.05,-0.4 -35.13,0 -67.45,13.49 -91.81,34.63l-127.86 0c-5.54,0 -10.07,4.53 -10.07,10.06 0,5.54 4.53,10.07 10.07,10.07l109.13 0c-7.15,10.07 -13.09,20.13 -17.72,31.21l-91.41 0c-5.54,0 -10.07,4.53 -10.07,10.07 0,5.54 4.53,10.07 10.07,10.07l84.87 0c-2.52,10.07 -3.83,21.24 -3.83,32.42 0,18.12 3.52,36.04 9.87,51.15l-118.29 0 0 -0.1 0.01 -0zm246.96 67.35c-65.24,0 -118.29,-53.06 -118.29,-118.29 0,-65.24 52.96,-118.29 118.29,-118.29 65.34,0 118.29,53.06 118.29,118.29 0,65.24 -53.05,118.29 -118.29,118.29zm0 0z"/>
     <path class="fil0" d="M81.34 210.41l101.98 0c5.54,0 10.07,-4.53 10.07,-10.07 0,-5.54 -4.53,-10.07 -10.07,-10.07l-101.98 0c-5.54,0 -10.07,4.53 -10.07,10.07 0,5.54 4.53,10.07 10.07,10.07zm0 0z"/>
     <path class="fil0" d="M352.45 342.59l-41.37 44.6 0 -109.93c0,-5.54 -4.53,-10.07 -10.07,-10.07 -5.54,0 -10.07,4.53 -10.07,10.07l0 109.93 -41.68 -44.6c-3.83,-4.03 -10.27,-4.33 -14.29,-0.5 -4.03,3.83 -4.33,10.17 -0.5,14.2l58.9 63.33c1.91,2.01 4.53,3.22 7.35,3.22 2.82,0 5.44,-1.21 7.35,-3.22l59 -63.33c3.83,-4.03 3.62,-10.47 -0.4,-14.2 -4.13,-3.83 -10.37,-3.52 -14.2,0.5l-0.01 0zm0 0z"/>
    </g>
   </g>
  </g>
 </g>
</svg>
