<?xml version="1.0" encoding="UTF-8"?>
<!DOCTYPE svg PUBLIC "-//W3C//DTD SVG 1.1//EN" "http://www.w3.org/Graphics/SVG/1.1/DTD/svg11.dtd">
<!-- Creator: CorelDRAW 2020 (64-Bit) -->
<svg xmlns="http://www.w3.org/2000/svg" xml:space="preserve" width="62.7106mm" height="59.1936mm" version="1.1" style="shape-rendering:geometricPrecision; text-rendering:geometricPrecision; image-rendering:optimizeQuality; fill-rule:evenodd; clip-rule:evenodd"
viewBox="0 0 1276.83 1205.22"
 xmlns:xlink="http://www.w3.org/1999/xlink"
 xmlns:xodm="http://www.corel.com/coreldraw/odm/2003">
 <defs>
  <style type="text/css">
   <![CDATA[
    .str0 {stroke:#FEFEFE;stroke-width:57.46;stroke-miterlimit:22.9256}
    .fil0 {fill:none}
   ]]>
  </style>
 </defs>
 <g id="Слой_x0020_1">
  <metadata id="CorelCorpID_0Corel-Layer"/>
  <g id="_1819085615760">
   <g id="_1818587331744">
    <path class="fil0 str0" d="M87.25 417.71l1102.34 0c32.31,0 58.51,15.54 58.51,34.7l-0 174.6c0,19.16 -26.2,34.7 -58.51,34.7l-1102.34 0c-32.31,-0 -58.51,-15.54 -58.51,-34.7l-0 -174.6c0,-19.16 26.21,-34.7 58.52,-34.7z"/>
    <path class="fil0 str0" d="M1117.42 664.52l0 456.89c0,30.28 -24.91,55.08 -55.38,55.08l-855.76 0c-30.47,0 -55.38,-24.77 -55.38,-55.08l0 -456.89"/>
    <line class="fil0 str0" x1="638.42" y1="417.71" x2="638.42" y2= "1176.49" />
    <path class="fil0 str0" d="M647 404.25c0,0 33.25,-311.82 150.51,-364.03 117.26,-52.2 240.57,88.82 181.45,175.47 -59.12,86.67 -178.74,181.66 -331.97,188.53l0 0 0 0.02z"/>
    <path class="fil0 str0" d="M635.32 404.02c0,0 -33.25,-311.82 -150.51,-364.03 -117.26,-52.2 -240.57,88.82 -181.45,175.47 59.1,86.67 178.74,181.66 331.96,188.53l0 0 0 0.02z"/>
   </g>
  </g>
 </g>
</svg>
