<svg xmlns="http://www.w3.org/2000/svg" width="245" height="137"><defs><clipPath id="a"><path fill="#fff" d="M75.734-207.531C170.874-207.531 248-130.398 248-35.25c0 95.148-77.126 172.281-172.266 172.281-95.14 0-172.265-77.133-172.265-172.281 0-95.148 77.126-172.281 172.265-172.281z"/></clipPath></defs><g clip-path="url(#clip-22175)"><path fill="#faeb42" d="M75.734-207.531C170.874-207.531 248-130.398 248-35.25c0 95.148-77.126 172.281-172.266 172.281-95.14 0-172.265-77.133-172.265-172.281 0-95.148 77.126-172.281 172.265-172.281z"/><path fill="none" stroke="#faeb42" stroke-miterlimit="20" stroke-width="30" d="M75.734-207.531C170.874-207.531 248-130.398 248-35.25c0 95.148-77.126 172.281-172.266 172.281-95.14 0-172.265-77.133-172.265-172.281 0-95.148 77.126-172.281 172.265-172.281z" clip-path="url(&quot;#a&quot;)"/></g></svg>