<svg data-name="Слой 1" xmlns="http://www.w3.org/2000/svg" viewBox="0 0 936.43 936.43"><defs><clipPath id="a" transform="translate(.5 .5)"><path fill="none" d="M217.58 276.33h500.28v382.78H217.58z"/></clipPath></defs><circle cx="468.22" cy="468.22" r="467.72" fill="#fbec42" stroke="#000" stroke-miterlimit="10"/><g clip-path="url(#a)"><path d="M694.5 297.21l-.09-.08a35.68 35.68 0 00-23.44-8.79H265.5a35.69 35.69 0 00-23.44 8.78l-.24.21a36.25 36.25 0 00-12.24 27.17v287.43a36.44 36.44 0 0011.07 26.12 3.26 3.26 0 00.33.31 35.6 35.6 0 0024.52 9.74h405.45a35.62 35.62 0 0024.49-9.72l.36-.35a36.42 36.42 0 0011.05-26.1V324.5a36.19 36.19 0 00-12.35-27.29m-127.81 11.12H669.5L484.36 483.38a25 25 0 01-32.29 0l-185.17-175zM250.28 616.74a16.7 16.7 0 01-.7-4.81V324.5a16.46 16.46 0 01.61-4.44l177.8 168.08zm18.42 11.36l174.59-126.34a45 45 0 0049.85 0L667.73 628.1zm418.16-16.17a16.71 16.71 0 01-.71 4.81l-177.71-128.6 177.8-168.08a16.47 16.47 0 01.62 4.44z" fill="#282828"/><path d="M694.5 297.21h0l-.09-.08a35.68 35.68 0 00-23.44-8.79H265.5a35.69 35.69 0 00-23.44 8.78l-.24.21a36.25 36.25 0 00-12.24 27.17v287.43a36.44 36.44 0 0011.07 26.12 3.26 3.26 0 00.33.31 35.6 35.6 0 0024.52 9.74h405.45a35.62 35.62 0 0024.49-9.72l.36-.35a36.42 36.42 0 0011.05-26.1V324.5a36.19 36.19 0 00-12.35-27.29zm-127.81 11.12H669.5L484.36 483.38a25 25 0 01-32.29 0l-185.17-175zM250.28 616.74a16.7 16.7 0 01-.7-4.81V324.5a16.46 16.46 0 01.61-4.44l177.8 168.08zm18.42 11.36l174.59-126.34a45 45 0 0049.85 0L667.73 628.1zm418.16-16.17a16.71 16.71 0 01-.71 4.81l-177.71-128.6 177.8-168.08a16.47 16.47 0 01.62 4.44z" fill="none" stroke="#282828" stroke-miterlimit="10" stroke-width="23"/></g></svg>