<svg version="1.1" id="Слой_1" xmlns="http://www.w3.org/2000/svg" xmlns:xlink="http://www.w3.org/1999/xlink" x="0" y="0" viewBox="0 0 563.4 499.3" xml:space="preserve"><style>.st0{clip-path:url(#SVGID_2_);fill:#282828}</style><defs><path id="SVGID_1_" d="M0 0h563.4v499.3H0z"/></defs><clipPath id="SVGID_2_"><use xlink:href="#SVGID_1_" overflow="visible"/></clipPath><path class="st0" d="M496.6 358.3c-1.9-1-4.1-1.2-6.1-.6s-3.7 2-4.7 3.9c-39.2 74.9-116.1 121.5-200.6 121.5-124.6.1-226.2-101.2-226.4-225.8v-21.8l29.1 29.1c1.5 1.5 3.5 2.4 5.7 2.4 2.1 0 4.2-.8 5.7-2.4 1.5-1.5 2.4-3.5 2.4-5.7 0-2.1-.8-4.2-2.4-5.7L57 210.8c-1.6-1.8-3.8-2.8-6.1-2.8-2.4 0-4.7 1.1-6.2 2.9l-.6.6-41.7 41.7c-1.5 1.5-2.4 3.5-2.4 5.7 0 2.1.8 4.2 2.4 5.7 3.1 3.1 8.2 3.1 11.4 0l29-29v21.7c.1 64.6 25.3 125.3 71 171 45.8 45.8 106.7 71 171.4 71 90.5 0 172.8-49.8 214.9-130.1 1-1.9 1.2-4.1.6-6.1-.8-2.1-2.2-3.8-4.1-4.8M549.7 234.7l-29 29V242c-.1-64.6-25.3-125.3-71-171C403.9 25.2 343 0 278.3 0 187.8 0 105.4 49.8 63.4 130.1c-1 1.9-1.2 4.1-.6 6.1s2 3.7 3.9 4.7 4.1 1.2 6.1.6 3.7-2 4.7-3.9c39.4-75 116.3-121.5 200.8-121.5 124.6 0 226.1 101.3 226.3 225.9v21.8l-29.1-29.1c-1.5-1.5-3.5-2.4-5.7-2.4-2.1 0-4.2.8-5.7 2.4-1.5 1.5-2.4 3.5-2.4 5.7 0 2.1.8 4.2 2.4 5.7l42.3 42.4c1.6 1.8 3.8 2.8 6.1 2.8 2.4 0 4.7-1.1 6.2-2.9l.6-.6L561 246c1.5-1.5 2.4-3.5 2.4-5.7 0-2.1-.8-4.2-2.4-5.7-1.5-1.5-3.5-2.4-5.7-2.4-2.1.1-4.1 1-5.6 2.5"/><path d="M281.7 126c68 0 123.2 55.4 123.2 123.7 0 68.3-55.2 123.7-123.2 123.7S158.5 318 158.5 249.7c0-68.4 55.2-123.7 123.2-123.7" clip-path="url(#SVGID_2_)" fill="#fbec42"/><path class="st0" d="M292.3 241.7c-7.2-2.5-15.2-5.6-19.6-9.1-1.4-1.1-2-3.6-1.5-6.3.2-1.3 1.4-5.7 5.9-7.1 7.4-2.2 12.5.7 14.3 2.1 3.5 2.6 8.5 1.9 11.1-1.6 2.6-3.5 1.9-8.5-1.6-11.1-1.7-1.2-5.9-4-11.8-5.3V200c0-4.4-3.6-8-8-8s-8 3.6-8 8v3.8c-.2.1-.5.1-.7.2-8.7 2.6-15.2 10.1-17 19.4-1.6 8.6 1.2 16.9 7.3 21.7 5.1 4 12 7.3 24.1 11.6 8 2.8 7.9 9.4 7.4 12-.9 5.4-5.5 11.3-13.3 11.3-7.7.1-10.1-.3-16-4.2-3.7-2.4-8.6-1.4-11 2.3-2.4 3.7-1.4 8.6 2.3 11 6.4 4.2 11.1 5.9 16.8 6.5v3.6c0 4.4 3.6 8 8 8s8-3.6 8-8v-4.4c4.4-1.2 8.4-3.4 11.8-6.5 4.8-4.4 8.1-10.5 9.2-16.9 2.4-13.2-4.8-25.2-17.7-29.7"/><path d="M292.3 241.7c-7.2-2.5-15.2-5.6-19.6-9.1-1.4-1.1-2-3.6-1.5-6.3.2-1.3 1.4-5.7 5.9-7.1 7.4-2.2 12.5.7 14.3 2.1 3.5 2.6 8.5 1.9 11.1-1.6 2.6-3.5 1.9-8.5-1.6-11.1-1.7-1.2-5.9-4-11.8-5.3V200c0-4.4-3.6-8-8-8s-8 3.6-8 8v3.8c-.2.1-.5.1-.7.2-8.7 2.6-15.2 10.1-17 19.4-1.6 8.6 1.2 16.9 7.3 21.7 5.1 4 12 7.3 24.1 11.6 8 2.8 7.9 9.4 7.4 12-.9 5.4-5.5 11.3-13.3 11.3-7.7.1-10.1-.3-16-4.2-3.7-2.4-8.6-1.4-11 2.3-2.4 3.7-1.4 8.6 2.3 11 6.4 4.2 11.1 5.9 16.8 6.5v3.6c0 4.4 3.6 8 8 8s8-3.6 8-8v-4.4c4.4-1.2 8.4-3.4 11.8-6.5 4.8-4.4 8.1-10.5 9.2-16.9 2.4-13.2-4.8-25.2-17.7-29.7z" clip-path="url(#SVGID_2_)" fill="none" stroke="#282828" stroke-width="5" stroke-miterlimit="10"/></svg>