<svg version="1.1" id="Слой_1" xmlns="http://www.w3.org/2000/svg" xmlns:xlink="http://www.w3.org/1999/xlink" x="0" y="0" viewBox="0 0 511.7 484.7" xml:space="preserve"><style>.st0{clip-path:url(#SVGID_2_);fill:#282828}</style><defs><path id="SVGID_1_" d="M0 0h511.7v484.7H0z"/></defs><clipPath id="SVGID_2_"><use xlink:href="#SVGID_1_" overflow="visible"/></clipPath><path class="st0" d="M501.7 340.4h-.3v-58.2c0-1.8-.4-2.9-.7-3.7l-36.2-95.9c-1.5-3.9-5.2-6.5-9.4-6.5h-59.2v-62.7c0-15-12.2-27.2-27.2-27.2H192.5c3.2 6.3 5.8 13 7.7 20h168.4c4 0 7.2 3.3 7.2 7.2v227H90V231.2c-6.9-1.1-13.6-2.9-20-5.2v114.4h-.3c-5.5 0-10 4.5-10 10v61.5c0 5.5 4.5 10 10 10h46.4c-.7 3.5-1.1 7.1-1.1 10.8 0 28.7 23.3 52.1 51.8 52.1 28.6 0 51.8-23.4 51.8-52.1 0-3.7-.4-7.3-1.1-10.8h147.2c-.7 3.5-1.1 7.1-1.1 10.8 0 28.7 23.3 52.1 51.8 52.1 28.6 0 51.8-23.4 51.8-52.1 0-3.7-.4-7.3-1.1-10.8h35.5c5.5 0 10-4.5 10-10v-61.5c.1-5.6-4.4-10-9.9-10zM395.9 196h52.2l28.8 76.1h-81V196zm0 96.1h85.5v48.2h-85.5v-48.2zM166.8 464.7c-17.6 0-31.8-14.4-31.8-32.1 0-17.7 14.3-32.1 31.8-32.1s31.8 14.4 31.8 32.1c0 17.7-14.3 32.1-31.8 32.1m248.7 0c-17.6 0-31.8-14.4-31.8-32.1 0-17.7 14.3-32.1 31.8-32.1s31.8 14.4 31.8 32.1c0 17.7-14.3 32.1-31.8 32.1m76.2-62.8h-34.2-.1c-9.4-12.9-24.7-21.3-41.8-21.3-17.1 0-32.4 8.4-41.8 21.3H208.7h-.1c-9.4-12.9-24.7-21.3-41.8-21.3-17.1 0-32.4 8.4-41.8 21.3H79.7v-41.5h412v41.5z"/><path d="M123.2 0c68 0 123.2 55.4 123.2 123.7 0 68.3-55.2 123.7-123.2 123.7C55.2 247.3 0 192 0 123.7 0 55.4 55.2 0 123.2 0" clip-path="url(#SVGID_2_)" fill="#fbec42"/><path class="st0" d="M182.2 99.4c0-3.8-.6-4.4-4.4-4.4-10.2 0-20.4.1-30.6.1-.8 0-1.6-.1-2.5-.1 2.8-2.2 5.4-3.9 7.6-6.1 4.6-4.4 5.5-11.4 2.5-17-3-5.5-9.4-8.4-15.6-7.1-6.4 1.3-9.7 6-12.6 11.1-1.2 2.1-2.2 4.4-3.4 7-.5-1.1-.8-1.9-1.2-2.6-2.3-3.7-4.2-7.7-7.1-11-5.5-6.2-15.2-6.2-20.9-.4-5.8 5.8-5.4 15.2.8 20.9 1.7 1.5 3.7 2.8 5.5 4.1.5.3.9.7 1.8 1.4h-3.3c-9.8 0-19.6.1-29.4.1-4.8 0-5.2.4-5.2 5.1 0 5.7.1 11.5.1 17.2 0 2.3 1 3.4 3.3 3.4.5 0 1.1.1 1.9.2v2.9l.3 53.7c0 4.2.6 4.7 4.6 4.7 32.9-.2 65.8-.3 98.7-.5 3.9 0 4.5-.6 4.5-4.4l-.3-54.2v-2.7c5.1-.8 5.1-.8 5.1-5.7-.2-5.2-.2-10.4-.2-15.7m-50.6-22.1c1.1-1.8 2.3-3.5 3.7-4.9 3.7-3.7 9.5-3.7 13.1-.2 3.7 3.6 3.8 9.6 0 13.3-5.1 5-11.5 7.5-18.3 9.1-1.3.3-2.6.4-4.4.7.6-6.8 2.7-12.6 5.9-18m-34.3 7.9c-3.6-3.2-3.2-9 .1-12.5 3.3-3.5 9-4 12.5-.7 6.6 6.1 9.1 14.3 10.8 23.3-5-.1-9.2-1.4-13.1-3.3-3.6-2-7.2-4.1-10.3-6.8m13.2 92.1c-11.9.1-23.7.1-35.6.2l-.3-56.2c11.9-.1 23.7-.1 35.6-.2l.3 56.2m-.3-61.6c-13.6.1-27.1.1-40.7.2 0-5 0-9.9-.1-15 13.5-.1 27-.1 40.7-.2.1 5 .1 9.9.1 15m5.4-15.1c5.1 0 10-.1 15.1-.1 0 5 .1 9.9.1 15.1-5.1 0-10 .1-15.1.1-.1-5.1-.1-10-.1-15.1m15.7 76.8l-15.3.1v-.1l-.3-56.3c5.1 0 10.1-.1 15.2-.1h.2l.2 56.4zm41.1-.2l-36.1.2-.3-56.5 36.1-.2.3 56.5zm4.6-61.9c-13.6.1-27.1.1-40.7.2 0-5.1-.1-10-.1-15.1 13.6-.1 27-.1 40.7-.2 0 5.2 0 10.1.1 15.1"/><path d="M182.2 99.4c0-3.8-.6-4.4-4.4-4.4-10.2 0-20.4.1-30.6.1-.8 0-1.6-.1-2.5-.1 2.8-2.2 5.4-3.9 7.6-6.1 4.6-4.4 5.5-11.4 2.5-17-3-5.5-9.4-8.4-15.6-7.1-6.4 1.3-9.7 6-12.6 11.1-1.2 2.1-2.2 4.4-3.4 7-.5-1.1-.8-1.9-1.2-2.6-2.3-3.7-4.2-7.7-7.1-11-5.5-6.2-15.2-6.2-20.9-.4-5.8 5.8-5.4 15.2.8 20.9 1.7 1.5 3.7 2.8 5.5 4.1.5.3.9.7 1.8 1.4h-3.3c-9.8 0-19.6.1-29.4.1-4.8 0-5.2.4-5.2 5.1 0 5.7.1 11.5.1 17.2 0 2.3 1 3.4 3.3 3.4.5 0 1.1.1 1.9.2v2.9l.3 53.7c0 4.2.6 4.7 4.6 4.7 32.9-.2 65.8-.3 98.7-.5 3.9 0 4.5-.6 4.5-4.4l-.3-54.2v-2.7c5.1-.8 5.1-.8 5.1-5.7-.2-5.2-.2-10.4-.2-15.7zm-50.6-22.1c1.1-1.8 2.3-3.5 3.7-4.9 3.7-3.7 9.5-3.7 13.1-.2 3.7 3.6 3.8 9.6 0 13.3-5.1 5-11.5 7.5-18.3 9.1-1.3.3-2.6.4-4.4.7.6-6.8 2.7-12.6 5.9-18zm-34.3 7.9c-3.6-3.2-3.2-9 .1-12.5 3.3-3.5 9-4 12.5-.7 6.6 6.1 9.1 14.3 10.8 23.3-5-.1-9.2-1.4-13.1-3.3-3.6-2-7.2-4.1-10.3-6.8zm13.2 92.1c-11.9.1-23.7.1-35.6.2l-.3-56.2c11.9-.1 23.7-.1 35.6-.2l.3 56.2zm-.3-61.6c-13.6.1-27.1.1-40.7.2 0-5 0-9.9-.1-15 13.5-.1 27-.1 40.7-.2.1 5 .1 9.9.1 15zm5.4-15.1c5.1 0 10-.1 15.1-.1 0 5 .1 9.9.1 15.1-5.1 0-10 .1-15.1.1-.1-5.1-.1-10-.1-15.1zm15.7 76.8l-15.3.1v-.1l-.3-56.3c5.1 0 10.1-.1 15.2-.1h.2l.2 56.4zm41.1-.2l-36.1.2-.3-56.5 36.1-.2.3 56.5zm4.6-61.9c-13.6.1-27.1.1-40.7.2 0-5.1-.1-10-.1-15.1 13.6-.1 27-.1 40.7-.2 0 5.2 0 10.1.1 15.1z" clip-path="url(#SVGID_2_)" fill="none" stroke="#282828" stroke-width="3" stroke-miterlimit="10"/></svg>