<svg version="1.1" id="Слой_1" xmlns="http://www.w3.org/2000/svg" xmlns:xlink="http://www.w3.org/1999/xlink" x="0" y="0" viewBox="0 0 337.6 512" xml:space="preserve"><style>.st0{clip-path:url(#SVGID_2_);fill:#282828}</style><defs><path id="SVGID_1_" d="M0 0h337.6v512H0z"/></defs><clipPath id="SVGID_2_"><use xlink:href="#SVGID_1_" overflow="visible"/></clipPath><path class="st0" d="M333 125.2L178.8 24.7V10c0-5.5-4.5-10-10-10s-10 4.5-10 10v14.7L4.5 125.2c-2.8 1.8-4.5 5-4.5 8.4V502c0 5.5 4.5 10 10 10h317.6c5.5 0 10-4.5 10-10V133.6c0-3.4-1.7-6.6-4.6-8.4m-164.2 6.5c5.5 0 10-4.5 10-10V115c6 3.5 10.1 9.9 10.1 17.3 0 11-9 20-20.1 20-11.1 0-20.1-9-20.1-20 0-7.4 4.1-13.9 10.1-17.3v6.6c0 5.6 4.5 10.1 10 10.1M317.6 492H20V139l138.8-90.4v45c-17.3 4.4-30.1 20.1-30.1 38.7 0 22 18 40 40.1 40s40.1-17.9 40.1-40c0-18.6-12.8-34.3-30.1-38.7v-45L317.6 139v353z"/><path clip-path="url(#SVGID_2_)" fill="#fbec42" d="M58.1 231.9h221.4V454H58.1z"/><path class="st0" d="M141.8 413.7c-1.3 0-2.6-.3-3.9-.8-5.1-2.1-7.5-8-5.4-13.1l53.2-126.7c2.1-5.1 8-7.5 13.1-5.4 5.1 2.1 7.5 8 5.4 13.1L151 407.6c-1.6 3.8-5.3 6.1-9.2 6.1M126.6 335.7c-18.5 0-33.5-16.7-33.5-37.3 0-20.6 15-37.3 33.5-37.3s33.5 16.7 33.5 37.3c0 20.6-15 37.3-33.5 37.3m0-54.6c-7.3 0-13.5 7.9-13.5 17.3s6.2 17.3 13.5 17.3 13.5-7.9 13.5-17.3-6.2-17.3-13.5-17.3M208.4 422.3c-18.5 0-33.5-16.7-33.5-37.3 0-20.6 15-37.3 33.5-37.3s33.5 16.7 33.5 37.3c0 20.6-15 37.3-33.5 37.3m0-54.6c-7.3 0-13.5 7.9-13.5 17.3s6.2 17.3 13.5 17.3 13.5-7.9 13.5-17.3-6.2-17.3-13.5-17.3"/></svg>