<svg version="1.1" id="Слой_1" xmlns="http://www.w3.org/2000/svg" xmlns:xlink="http://www.w3.org/1999/xlink" x="0" y="0" viewBox="0 0 110.6 103.1" xml:space="preserve"><style>.st0,.st1{clip-path:url(#SVGID_2_);fill:#282828}.st1{fill:none;stroke:#282828;stroke-width:7;stroke-miterlimit:10}</style><defs><path id="SVGID_1_" d="M0 0h110.6v103.1H0z"/></defs><clipPath id="SVGID_2_"><use xlink:href="#SVGID_1_" overflow="visible"/></clipPath><path class="st0" d="M104.2 50.3c-1.7 0-3 1.3-3 3v27c0 7.3-6 13.3-13.3 13.3H22.7c-7.3 0-13.3-6-13.3-13.3V52.9c0-1.6-1.3-3-3-3s-3 1.3-3 3v27.5C3.4 91 12 99.6 22.6 99.6h65.2c10.6 0 19.2-8.6 19.2-19.2v-27c.1-1.7-1.2-3.1-2.8-3.1"/><path class="st1" d="M104.2 50.3c-1.7 0-3 1.3-3 3v27c0 7.3-6 13.3-13.3 13.3H22.7c-7.3 0-13.3-6-13.3-13.3V52.9c0-1.6-1.3-3-3-3s-3 1.3-3 3v27.5C3.4 91 12 99.6 22.6 99.6h65.2c10.6 0 19.2-8.6 19.2-19.2v-27c.1-1.7-1.2-3.1-2.8-3.1z"/><path class="st0" d="M53.2 76c.6.6 1.3.9 2.1.9.7 0 1.5-.3 2.1-.9l18.9-18.9c1.2-1.2 1.2-3 0-4.2-1.2-1.2-3-1.2-4.2 0L58.3 66.7V6.5c0-1.7-1.3-3-3-3-1.6 0-3 1.3-3 3v60.2L38.5 52.9c-1.2-1.2-3-1.2-4.2 0-1.2 1.2-1.2 3 0 4.2L53.2 76z"/><path class="st1" d="M53.2 76c.6.6 1.3.9 2.1.9.7 0 1.5-.3 2.1-.9l18.9-18.9c1.2-1.2 1.2-3 0-4.2-1.2-1.2-3-1.2-4.2 0L58.3 66.7V6.5c0-1.7-1.3-3-3-3-1.6 0-3 1.3-3 3v60.2L38.5 52.9c-1.2-1.2-3-1.2-4.2 0-1.2 1.2-1.2 3 0 4.2L53.2 76z"/></svg>