<svg xmlns="http://www.w3.org/2000/svg" width="12" height="9"><path fill="#fff" d="M1.342 4.935h8.536L6.98 7.723a.514.514 0 000 .745.567.567 0 00.775 0l3.834-3.687a.513.513 0 000-.745L7.754.35a.557.557 0 00-.387-.154c-.14 0-.28.05-.388.154a.511.511 0 000 .744l2.9 2.788H1.341a.538.538 0 00-.548.527c0 .29.245.526.548.526z"/><path fill="#e31720" d="M1.342 4.935h8.536L6.98 7.723a.514.514 0 000 .745.567.567 0 00.775 0l3.834-3.687a.513.513 0 000-.745L7.754.35a.557.557 0 00-.387-.154c-.14 0-.28.05-.388.154a.511.511 0 000 .744l2.9 2.788H1.341a.538.538 0 00-.548.527c0 .29.245.526.548.526z"/></svg>