<svg data-name="Слой 1" xmlns="http://www.w3.org/2000/svg" viewBox="0 0 255.11 255.11"><defs><clipPath id="a"><path fill="none" d="M0 0h255.11v255.11H0z"/></clipPath></defs><g clip-path="url(#a)"><path d="M30 255.11h195.11a30 30 0 0030-30V30a30 30 0 00-30-30H30A30 30 0 000 30v195.11a30 30 0 0030 30" fill="#fbec42"/><path d="M183.28 120.57a4.39 4.39 0 10-8.67 1.39v.07a48.34 48.34 0 11-12-24.55L143.16 104a4.39 4.39 0 00-2.78 5.56 4.4 4.4 0 005.55 2.78l26.35-8.79a4.38 4.38 0 003-4.16V73a4.39 4.39 0 10-8.78 0v16a56.53 56.53 0 1016.77 31.53" fill="#282828"/><path d="M183.28 120.57a4.39 4.39 0 10-8.67 1.39v.07a48.34 48.34 0 11-12-24.55L143.16 104a4.39 4.39 0 00-2.78 5.56h0a4.4 4.4 0 005.55 2.78h0l26.35-8.79a4.38 4.38 0 003-4.16V73a4.39 4.39 0 10-8.78 0v16a56.53 56.53 0 1016.77 31.53z" fill="none" stroke="#282828" stroke-miterlimit="10" stroke-width="4"/></g></svg>