<svg data-name="Слой 1" xmlns="http://www.w3.org/2000/svg" viewBox="0 0 512 422.26"><defs><clipPath id="a"><path fill="none" d="M0 0h512v422.26H0z"/></clipPath></defs><g clip-path="url(#a)"><path d="M225.64 262.88V169.8a10 10 0 00-10-10h-27.79v-5.23a33.47 33.47 0 00-66.94 0v5.23H93.29a10 10 0 00-10 10v93.08a31.4 31.4 0 0031.36 31.36h79.63a31.4 31.4 0 0031.36-31.36m-84.73-108.31a13.5 13.5 0 0127 0v5.23h-27zm-37.62 108.31V179.8h17.62v10a10 10 0 0020 0v-10h27v10a10 10 0 0020 0v-10h17.78v83.08a11.37 11.37 0 01-11.36 11.36h-79.68a11.37 11.37 0 01-11.36-11.36" fill="#282828"/><path d="M502 329.1h-9.38V40.75A40.8 40.8 0 00451.87 0H60.13a40.8 40.8 0 00-40.75 40.75V329.1H10a10 10 0 00-10 10v37.4a45.81 45.81 0 0045.76 45.76h420.48A45.81 45.81 0 00512 376.5v-37.4a10 10 0 00-10-10M60.13 20h391.74a20.78 20.78 0 0120.75 20.75v27.83H39.38V40.75A20.78 20.78 0 0160.13 20M39.38 88.58h433.24V329.1H328.38a10 10 0 00-10 10 11.59 11.59 0 01-11.58 11.58H205.2a11.59 11.59 0 01-11.58-11.58 10 10 0 00-10-10H39.38zM492 376.5a25.79 25.79 0 01-25.76 25.76H45.76A25.78 25.78 0 0120 376.5v-27.4h155.24a31.63 31.63 0 0030 21.58H306.8a31.63 31.63 0 0030-21.58H492z" fill="#282828"/><path d="M250.38 53.11h11.24a10 10 0 000-20h-11.24a10 10 0 000 20" fill="#282828"/><path fill="#fbec42" d="M272.55 227.02h160.2v50.28h-160.2zM272.55 139.53h160.2v50.28h-160.2z"/></g></svg>